<?xml version="1.0" standalone="no"?>
<!DOCTYPE svg PUBLIC "-//W3C//DTD SVG 20010904//EN"
 "http://www.w3.org/TR/2001/REC-SVG-20010904/DTD/svg10.dtd">
<svg version="1.0" xmlns="http://www.w3.org/2000/svg"
 width="1024.000000pt" height="1024.000000pt" viewBox="0 0 1024.000000 1024.000000"
 preserveAspectRatio="xMidYMid meet">
<metadata>
Created by potrace 1.11, written by Peter Selinger 2001-2013
</metadata>
<g transform="translate(0.000000,1024.000000) scale(0.100000,-0.100000)"
fill="#000000" stroke="none">
<path d="M5030 10028 c-153 -13 -306 -68 -445 -161 -72 -47 -4072 -4039 -4171
-4161 -199 -247 -260 -578 -162 -886 31 -98 105 -235 169 -314 98 -121 4107
-4118 4172 -4160 81 -52 210 -111 287 -131 277 -71 580 -11 798 159 99 77
4145 4135 4189 4201 197 296 223 643 73 951 -27 56 -76 135 -109 175 -98 123
-4106 4120 -4179 4169 -188 125 -394 177 -622 158z m240 -759 c99 -15 251 -71
343 -125 75 -44 175 -141 1155 -1119 1127 -1123 1139 -1136 1207 -1290 48
-109 67 -207 70 -360 2 -77 4 -144 4 -149 1 -5 184 -194 409 -420 443 -447
472 -483 532 -654 98 -277 50 -603 -125 -847 -24 -33 -745 -760 -1602 -1617
-1672 -1670 -1609 -1610 -1784 -1681 -137 -55 -177 -62 -359 -61 -150 0 -173
3 -253 27 -95 29 -180 69 -267 125 -69 44 -3152 3121 -3214 3207 -59 82 -111
188 -143 292 -24 80 -27 102 -27 253 0 151 3 173 27 253 29 94 71 184 120 257
16 25 206 223 422 440 215 217 399 407 408 422 13 22 16 42 11 100 -13 155 37
367 122 513 42 73 140 174 1108 1143 583 585 1090 1086 1126 1114 112 86 293
161 435 181 61 8 212 7 275 -4z"/>
<path d="M5010 8794 c-131 -26 -250 -75 -345 -142 -65 -46 -1738 -1714 -1816
-1811 -142 -175 -189 -346 -189 -686 1 -332 29 -463 136 -633 44 -70 1779
-1812 1870 -1878 81 -58 171 -99 274 -125 118 -30 308 -24 425 15 185 60 150
29 1138 1015 638 637 911 916 944 965 54 80 97 186 119 291 13 61 15 132 12
378 -4 275 -6 308 -26 375 -31 103 -81 197 -150 283 -91 113 -1767 1779 -1832
1821 -146 94 -254 128 -420 133 -63 2 -126 1 -140 -1z"/>
<path d="M7470 4498 c-37 -63 -163 -194 -959 -989 -996 -997 -963 -967 -1134
-1024 -116 -39 -227 -51 -340 -38 -172 20 -308 83 -448 206 -46 41 -464 457
-929 923 -714 717 -852 860 -884 917 -21 37 -40 67 -42 67 -9 0 -47 -148 -61
-240 -20 -133 -13 -505 12 -617 20 -91 63 -196 111 -270 41 -64 1750 -1785
1844 -1857 159 -122 323 -173 524 -163 176 8 318 63 457 176 123 99 1780 1767
1826 1838 54 82 98 190 118 290 14 70 16 130 12 380 -4 303 -9 344 -50 443
l-14 32 -43 -74z"/>
</g>
</svg>
