<?xml version="1.0" encoding="UTF-8"?>
<svg width="309px" height="74px" viewBox="0 0 309 74" version="1.1" xmlns="http://www.w3.org/2000/svg" xmlns:xlink="http://www.w3.org/1999/xlink">
    <!-- Generator: Sketch 56.3 (81716) - https://sketch.com -->
    <title>Group 3</title>
    <desc>Created with Sketch.</desc>
    <g id="Page-3" stroke="none" stroke-width="1" fill="none" fill-rule="evenodd">
        <g id="Desktop-HD" transform="translate(-118.000000, -64.000000)">
            <g id="Group-3" transform="translate(115.000000, 61.000000)">
                <g id="marco">
                    <g id="Group">
                        <path d="M18.8135593,11.7514124 L61.1864407,11.7514124 C65.0867567,11.7514124 68.2485876,14.9132433 68.2485876,18.8135593 L68.2485876,61.1864407 C68.2485876,65.0867567 65.0867567,68.2485876 61.1864407,68.2485876 L18.8135593,68.2485876 C14.9132433,68.2485876 11.7514124,65.0867567 11.7514124,61.1864407 L11.7514124,18.8135593 C11.7514124,14.9132433 14.9132433,11.7514124 18.8135593,11.7514124 Z" id="blanco" fill="#FFFFFF" transform="translate(40.000000, 40.000000) rotate(-45.000000) translate(-40.000000, -40.000000) "></path>
                        <path d="M30.4985412,18.4934087 L22.7306968,18.4934087 C18.8303808,18.4934087 15.6685499,21.6552395 15.6685499,25.5555556 L15.6685499,57.3352166 C15.6685499,61.2355326 18.8303808,64.3973635 22.7306968,64.3973635 L54.5103578,64.3973635 C58.4106738,64.3973635 61.5725047,61.2355326 61.5725047,57.3352166 L61.5725047,49.5673722 C63.2878249,48.2789452 64.3973635,46.2276146 64.3973635,43.9171375 L64.3973635,22.7306968 C64.3973635,18.8303808 61.2355326,15.6685499 57.3352166,15.6685499 L36.1487759,15.6685499 C33.8382987,15.6685499 31.7869682,16.7780885 30.4985412,18.4934087 L30.4985412,18.4934087 Z M18.8135593,11.7514124 L61.1864407,11.7514124 C65.0867567,11.7514124 68.2485876,14.9132433 68.2485876,18.8135593 L68.2485876,61.1864407 C68.2485876,65.0867567 65.0867567,68.2485876 61.1864407,68.2485876 L18.8135593,68.2485876 C14.9132433,68.2485876 11.7514124,65.0867567 11.7514124,61.1864407 L11.7514124,18.8135593 C11.7514124,14.9132433 14.9132433,11.7514124 18.8135593,11.7514124 Z" id="Combined-Shape-Copy-10" fill="#4D2D80" transform="translate(40.000000, 40.000000) rotate(-45.000000) translate(-40.000000, -40.000000) "></path>
                    </g>
                </g>
                <g id="colores" transform="translate(19.058380, 10.717514)">
                    <g id="azul" transform="translate(0.000000, 15.743879)" fill="#018CE9">
                        <path d="M12.0752011,6.14299775 L29.8718113,6.14299775 C33.1480768,6.14299775 35.8040147,8.79893567 35.8040147,12.0752011 L35.8040147,29.8718113 C35.8040147,33.1480768 33.1480768,35.8040147 29.8718113,35.8040147 L12.0752011,35.8040147 C8.79893567,35.8040147 6.14299775,33.1480768 6.14299775,29.8718113 L6.14299775,12.0752011 C6.14299775,8.79893567 8.79893567,6.14299775 12.0752011,6.14299775 Z" transform="translate(20.973506, 20.973506) rotate(-45.000000) translate(-20.973506, -20.973506) "></path>
                    </g>
                    <g id="amarillo" transform="translate(0.000000, 7.984934)" fill="#F5A623">
                        <path d="M12.0752011,6.14299775 L29.8718113,6.14299775 C33.1480768,6.14299775 35.8040147,8.79893567 35.8040147,12.0752011 L35.8040147,29.8718113 C35.8040147,33.1480768 33.1480768,35.8040147 29.8718113,35.8040147 L12.0752011,35.8040147 C8.79893567,35.8040147 6.14299775,33.1480768 6.14299775,29.8718113 L6.14299775,12.0752011 C6.14299775,8.79893567 8.79893567,6.14299775 12.0752011,6.14299775 Z" transform="translate(20.973506, 20.973506) rotate(-45.000000) translate(-20.973506, -20.973506) "></path>
                    </g>
                    <g id="rojo" fill="#FF2D55">
                        <path d="M12.0752011,6.14299775 L29.8718113,6.14299775 C33.1480768,6.14299775 35.8040147,8.79893567 35.8040147,12.0752011 L35.8040147,29.8718113 C35.8040147,33.1480768 33.1480768,35.8040147 29.8718113,35.8040147 L12.0752011,35.8040147 C8.79893567,35.8040147 6.14299775,33.1480768 6.14299775,29.8718113 L6.14299775,12.0752011 C6.14299775,8.79893567 8.79893567,6.14299775 12.0752011,6.14299775 Z" transform="translate(20.973506, 20.973506) rotate(-45.000000) translate(-20.973506, -20.973506) "></path>
                    </g>
                </g>
                <path d="M111.026087,11.56 L103.673998,33.6 L97.0361125,33.6 L89.6,11.56 L95.8597783,11.56 L100.439079,26.608588 L100.523103,26.608588 L105.102404,11.56 L111.026087,11.56 Z M113.321739,33.6 L113.321739,3.2 L119.443478,3.2 L119.443478,33.6 L113.321739,33.6 Z M131.963541,4.72 L131.963541,11.3223599 L136.278261,11.3223599 L136.278261,15.3689676 L131.963541,15.3689676 L131.963541,26.2735103 C131.963541,28.3181121 132.461393,28.8292625 134.452803,28.8292625 C135.075118,28.8292625 135.655946,28.7866667 136.278261,28.6588791 L136.278261,33.3870206 C135.282556,33.5574041 133.996438,33.6 132.834783,33.6 C129.225354,33.6 126.072289,32.7480826 126.072289,28.360708 L126.072289,15.3689676 L122.504348,15.3689676 L122.504348,11.3223599 L126.072289,11.3223599 L126.072289,4.72 L131.963541,4.72 Z M139.33913,33.6 L139.33913,11.4011299 L145.090094,11.4011299 L145.090094,14.4926554 L145.217893,14.4926554 C146.751484,12.0022599 149.392667,10.8 151.948651,10.8 C158.38121,10.8 160,14.4497175 160,19.9457627 L160,33.6 L153.950838,33.6 L153.950838,21.0621469 C153.950838,17.4124294 152.885845,15.6090395 150.074263,15.6090395 C146.794083,15.6090395 145.388292,17.4553672 145.388292,21.9638418 L145.388292,33.6 L139.33913,33.6 Z M95.3851395,40.8 C98.6690118,40.8 100.633197,43.3991736 100.633197,46.5181818 C100.633197,49.6371901 98.6690118,52.2363636 95.3851395,52.2363636 C92.1012672,52.2363636 90.1370819,49.6371901 90.1370819,46.5181818 C90.1370819,43.3991736 92.1012672,40.8 95.3851395,40.8 Z M95.3851395,42.3595041 C93.0373243,42.3595041 92.0552316,44.4235537 92.0552316,46.5181818 C92.0552316,48.6128099 93.0373243,50.6768595 95.3851395,50.6768595 C97.7329548,50.6768595 98.7150474,48.6128099 98.7150474,46.5181818 C98.7150474,44.4235537 97.7329548,42.3595041 95.3851395,42.3595041 Z M108.290451,48.0318182 C108.290451,46.5946281 107.538536,45.2338843 106.096088,45.2338843 C104.622949,45.2338843 103.871034,46.35 103.871034,48.0318182 C103.871034,49.6219008 104.684329,50.8144628 106.096088,50.8144628 C107.691988,50.8144628 108.290451,49.4078512 108.290451,48.0318182 Z M102.183062,54.8966942 L102.183062,44.0719008 L103.840343,44.0719008 L103.840343,45.1421488 L103.871034,45.1421488 C104.36208,44.2400826 105.313482,43.8578512 106.326265,43.8578512 C108.827533,43.8578512 110.039803,45.753719 110.039803,48.0623967 C110.039803,50.1876033 108.965639,52.1904959 106.617824,52.1904959 C105.605041,52.1904959 104.515532,51.8235537 103.963105,50.9520661 L103.932415,50.9520661 L103.932415,54.8966942 L102.183062,54.8966942 Z M118.70984,48.4752066 L112.878665,48.4752066 C112.878665,49.7136364 113.553854,50.8144628 115.011647,50.8144628 C116.02443,50.8144628 116.638238,50.3710744 116.945142,49.4995868 L118.602424,49.4995868 C118.218794,51.2272727 116.745655,52.1904959 115.011647,52.1904959 C112.525725,52.1904959 111.129312,50.4628099 111.129312,48.0318182 C111.129312,45.7842975 112.602451,43.8578512 114.965612,43.8578512 C117.466879,43.8578512 119.001399,46.1053719 118.70984,48.4752066 Z M112.878665,47.3285124 L116.960488,47.3285124 C116.899107,46.227686 116.147192,45.2338843 114.965612,45.2338843 C113.753341,45.2338843 112.924701,46.1512397 112.878665,47.3285124 Z M120.044872,51.9764463 L120.044872,44.0719008 L121.686808,44.0719008 L121.686808,45.6008264 L121.717499,45.6008264 C121.916986,44.7599174 122.96046,43.8578512 124.034624,43.8578512 C124.433599,43.8578512 124.541015,43.8884298 124.694467,43.903719 L124.694467,45.5855372 C124.448944,45.5549587 124.188076,45.5090909 123.942552,45.5090909 C122.745627,45.5090909 121.794225,46.472314 121.794225,48.2152893 L121.794225,51.9764463 L120.044872,51.9764463 Z M130.3415,49.3161157 L130.3415,48.0165289 C129.804418,48.3681818 128.960432,48.3528926 128.193172,48.4904959 C127.441258,48.6128099 126.766069,48.8880165 126.766069,49.8053719 C126.766069,50.585124 127.763507,50.8144628 128.377315,50.8144628 C129.144574,50.8144628 130.3415,50.4169421 130.3415,49.3161157 Z M132.090852,46.1512397 L132.090852,50.2181818 C132.090852,50.646281 132.182924,50.8144628 132.505173,50.8144628 C132.612589,50.8144628 132.750696,50.8144628 132.934838,50.7838843 L132.934838,51.9917355 C132.67397,52.0834711 132.121543,52.1904959 131.829984,52.1904959 C131.124105,52.1904959 130.617713,51.9458678 130.479607,51.2272727 C129.789073,51.9 128.668873,52.1904959 127.732816,52.1904959 C126.305713,52.1904959 125.016716,51.4260331 125.016716,49.8818182 C125.016716,47.9095041 126.597272,47.5884298 128.070411,47.4202479 C129.328717,47.1909091 130.448916,47.3285124 130.448916,46.3041322 C130.448916,45.4020661 129.512859,45.2338843 128.80698,45.2338843 C127.824887,45.2338843 127.134354,45.631405 127.057628,46.4876033 L125.308275,46.4876033 C125.431037,44.4541322 127.165044,43.8578512 128.914397,43.8578512 C130.464261,43.8578512 132.090852,44.4847107 132.090852,46.1512397 Z M141.083138,46.7169421 L139.333786,46.7169421 C139.195679,45.753719 138.4898,45.2338843 137.523052,45.2338843 C136.617686,45.2338843 135.344034,45.7078512 135.344034,48.1082645 C135.344034,49.4231405 135.927152,50.8144628 137.446326,50.8144628 C138.459109,50.8144628 139.164989,50.1417355 139.333786,49.0103306 L141.083138,49.0103306 C140.760889,51.0590909 139.487238,52.1904959 137.446326,52.1904959 C134.960404,52.1904959 133.594682,50.4322314 133.594682,48.1082645 C133.594682,45.7231405 134.899024,43.8578512 137.507707,43.8578512 C139.349131,43.8578512 140.914341,44.7752066 141.083138,46.7169421 Z M142.556277,51.9764463 L142.556277,44.0719008 L144.30563,44.0719008 L144.30563,51.9764463 L142.556277,51.9764463 Z M142.556277,42.711157 L142.556277,41.0599174 L144.30563,41.0599174 L144.30563,42.711157 L142.556277,42.711157 Z M149.845246,50.8144628 C151.410456,50.8144628 152.10099,49.392562 152.10099,48.0165289 C152.10099,46.6557851 151.410456,45.2338843 149.845246,45.2338843 C148.280036,45.2338843 147.589502,46.6557851 147.589502,48.0165289 C147.589502,49.392562 148.280036,50.8144628 149.845246,50.8144628 Z M149.845246,52.1904959 C147.297943,52.1904959 145.84015,50.4475207 145.84015,48.0165289 C145.84015,45.6008264 147.297943,43.8578512 149.845246,43.8578512 C152.392549,43.8578512 153.850343,45.6008264 153.850343,48.0165289 C153.850343,50.4475207 152.392549,52.1904959 149.845246,52.1904959 Z M155.308137,51.9764463 L155.308137,44.0719008 L156.965418,44.0719008 L156.965418,45.2338843 L156.996108,45.2644628 C157.517845,44.3929752 158.423212,43.8578512 159.466685,43.8578512 C161.185347,43.8578512 162.274856,44.7752066 162.274856,46.5487603 L162.274856,51.9764463 L160.525504,51.9764463 L160.525504,47.007438 C160.494813,45.7690083 160.003767,45.2338843 158.975639,45.2338843 C157.809404,45.2338843 157.057489,46.1512397 157.057489,47.3132231 L157.057489,51.9764463 L155.308137,51.9764463 Z M171.313178,48.4752066 L165.482003,48.4752066 C165.482003,49.7136364 166.157191,50.8144628 167.614985,50.8144628 C168.627768,50.8144628 169.241576,50.3710744 169.54848,49.4995868 L171.205761,49.4995868 C170.822131,51.2272727 169.348992,52.1904959 167.614985,52.1904959 C165.129063,52.1904959 163.73265,50.4628099 163.73265,48.0318182 C163.73265,45.7842975 165.205789,43.8578512 167.56895,43.8578512 C170.070217,43.8578512 171.604737,46.1053719 171.313178,48.4752066 Z M165.482003,47.3285124 L169.563825,47.3285124 C169.502444,46.227686 168.75053,45.2338843 167.56895,45.2338843 C166.356679,45.2338843 165.528038,46.1512397 165.482003,47.3285124 Z M172.218544,49.4384298 L173.967897,49.4384298 C174.059968,50.4475207 174.827228,50.8144628 175.763285,50.8144628 C176.423129,50.8144628 177.574018,50.6768595 177.527983,49.7747934 C177.481947,48.857438 176.208296,48.7504132 174.934644,48.4599174 C173.645648,48.1847107 172.387342,47.7260331 172.387342,46.1206612 C172.387342,44.3929752 174.259456,43.8578512 175.701904,43.8578512 C177.328495,43.8578512 178.801634,44.5305785 179.016467,46.288843 L177.190388,46.288843 C177.036937,45.4632231 176.346403,45.2338843 175.579143,45.2338843 C175.072751,45.2338843 174.136694,45.3561983 174.136694,46.0442149 C174.136694,46.9004132 175.425691,47.0227273 176.714687,47.3132231 C177.988339,47.603719 179.277335,48.0623967 179.277335,49.6219008 C179.277335,51.5024793 177.374531,52.1904959 175.732595,52.1904959 C173.737719,52.1904959 172.249235,51.303719 172.218544,49.4384298 Z M187.042005,42.6194215 L187.042005,50.4169421 L188.929465,50.4169421 C191.937123,50.4169421 192.581622,48.7045455 192.581622,46.5181818 C192.581622,44.3318182 191.937123,42.6194215 188.929465,42.6194215 L187.042005,42.6194215 Z M185.123856,51.9764463 L185.123856,41.0599174 L189.666034,41.0599174 C193.041978,41.0599174 194.499771,43.5061983 194.499771,46.5181818 C194.499771,49.5301653 193.041978,51.9764463 189.666034,51.9764463 L185.123856,51.9764463 Z M196.003601,51.9764463 L196.003601,44.0719008 L197.752953,44.0719008 L197.752953,51.9764463 L196.003601,51.9764463 Z M196.003601,42.711157 L196.003601,41.0599174 L197.752953,41.0599174 L197.752953,42.711157 L196.003601,42.711157 Z M203.108427,50.6004132 C204.658292,50.6004132 205.24141,49.1938017 205.24141,47.8483471 C205.24141,46.4876033 204.627602,45.2338843 203.108427,45.2338843 C201.558562,45.2338843 201.021481,46.6710744 201.021481,47.9859504 C201.021481,49.2855372 201.650634,50.6004132 203.108427,50.6004132 Z M206.990762,44.0719008 L206.990762,51.5636364 C206.990762,53.9334711 205.594349,55.1107438 203.093082,55.1107438 C201.497182,55.1107438 199.701794,54.4991736 199.548342,52.6491736 L201.297694,52.6491736 C201.512527,53.6429752 202.310477,53.811157 203.200499,53.811157 C204.612257,53.811157 205.24141,53.092562 205.24141,51.7929752 L205.24141,50.585124 L205.210719,50.585124 C204.719673,51.4566116 203.814306,51.9764463 202.832214,51.9764463 C200.315601,51.9764463 199.272128,50.0805785 199.272128,47.8177686 C199.272128,45.692562 200.60716,43.8578512 202.862904,43.8578512 C203.860342,43.8578512 204.765709,44.2706612 205.210719,45.157438 L205.24141,45.157438 L205.24141,44.0719008 L206.990762,44.0719008 Z M208.801496,51.9764463 L208.801496,44.0719008 L210.550848,44.0719008 L210.550848,51.9764463 L208.801496,51.9764463 Z M208.801496,42.711157 L208.801496,41.0599174 L210.550848,41.0599174 L210.550848,42.711157 L208.801496,42.711157 Z M211.655703,45.3714876 L211.655703,44.0719008 L212.97539,44.0719008 L212.97539,41.7020661 L214.724742,41.7020661 L214.724742,44.0719008 L216.305297,44.0719008 L216.305297,45.3714876 L214.724742,45.3714876 L214.724742,49.5913223 C214.724742,50.3099174 214.786123,50.6768595 215.568728,50.6768595 C215.814251,50.6768595 216.059774,50.6768595 216.305297,50.6157025 L216.305297,51.961157 C215.921667,51.9917355 215.553383,52.0528926 215.169753,52.0528926 C213.343674,52.0528926 213.00608,51.3495868 212.97539,50.0347107 L212.97539,45.3714876 L211.655703,45.3714876 Z M222.458722,49.3161157 L222.458722,48.0165289 C221.92164,48.3681818 221.077654,48.3528926 220.310394,48.4904959 C219.558479,48.6128099 218.883291,48.8880165 218.883291,49.8053719 C218.883291,50.585124 219.880728,50.8144628 220.494536,50.8144628 C221.261796,50.8144628 222.458722,50.4169421 222.458722,49.3161157 Z M224.208074,46.1512397 L224.208074,50.2181818 C224.208074,50.646281 224.300145,50.8144628 224.622395,50.8144628 C224.729811,50.8144628 224.867918,50.8144628 225.05206,50.7838843 L225.05206,51.9917355 C224.791192,52.0834711 224.238765,52.1904959 223.947206,52.1904959 C223.241327,52.1904959 222.734935,51.9458678 222.596828,51.2272727 C221.906295,51.9 220.786095,52.1904959 219.850038,52.1904959 C218.422935,52.1904959 217.133938,51.4260331 217.133938,49.8818182 C217.133938,47.9095041 218.714493,47.5884298 220.187632,47.4202479 C221.445939,47.1909091 222.566138,47.3285124 222.566138,46.3041322 C222.566138,45.4020661 221.630081,45.2338843 220.924202,45.2338843 C219.942109,45.2338843 219.251575,45.631405 219.174849,46.4876033 L217.425497,46.4876033 C217.548258,44.4541322 219.282266,43.8578512 221.031618,43.8578512 C222.581483,43.8578512 224.208074,44.4847107 224.208074,46.1512397 Z M226.141569,51.9764463 L226.141569,41.0599174 L227.890922,41.0599174 L227.890922,51.9764463 L226.141569,51.9764463 Z M236.990624,48.4752066 L231.159449,48.4752066 C231.159449,49.7136364 231.834637,50.8144628 233.292431,50.8144628 C234.305214,50.8144628 234.919022,50.3710744 235.225926,49.4995868 L236.883208,49.4995868 C236.499578,51.2272727 235.026439,52.1904959 233.292431,52.1904959 C230.806509,52.1904959 229.410096,50.4628099 229.410096,48.0318182 C229.410096,45.7842975 230.883235,43.8578512 233.246396,43.8578512 C235.747663,43.8578512 237.282183,46.1053719 236.990624,48.4752066 Z M231.159449,47.3285124 L235.241271,47.3285124 C235.179891,46.227686 234.427976,45.2338843 233.246396,45.2338843 C232.034125,45.2338843 231.205484,46.1512397 231.159449,47.3285124 Z M237.895991,49.4384298 L239.645343,49.4384298 C239.737414,50.4475207 240.504674,50.8144628 241.440731,50.8144628 C242.100575,50.8144628 243.251465,50.6768595 243.205429,49.7747934 C243.159393,48.857438 241.885742,48.7504132 240.612091,48.4599174 C239.323094,48.1847107 238.064788,47.7260331 238.064788,46.1206612 C238.064788,44.3929752 239.936902,43.8578512 241.37935,43.8578512 C243.005941,43.8578512 244.47908,44.5305785 244.693913,46.288843 L242.867835,46.288843 C242.714383,45.4632231 242.023849,45.2338843 241.256589,45.2338843 C240.750197,45.2338843 239.81414,45.3561983 239.81414,46.0442149 C239.81414,46.9004132 241.103137,47.0227273 242.392134,47.3132231 C243.665785,47.603719 244.954782,48.0623967 244.954782,49.6219008 C244.954782,51.5024793 243.051977,52.1904959 241.410041,52.1904959 C239.415165,52.1904959 237.926681,51.303719 237.895991,49.4384298 Z M92.6076587,67.235124 L89.6,59.361157 L91.5181497,59.361157 L93.5897514,65.2628099 L93.6204418,65.2628099 L95.6306627,59.361157 L97.4567412,59.361157 L94.3723565,67.6938017 C93.8045842,69.1157025 93.3902638,70.4 91.5641853,70.4 C91.149865,70.4 90.7508898,70.3694215 90.3519147,70.3082645 L90.3519147,68.8404959 C90.6281282,68.8863636 90.9043418,68.9475207 91.1805554,68.9475207 C91.9938508,68.9475207 92.1933384,68.5194215 92.4081712,67.8466942 L92.6076587,67.235124 Z M104.868472,57.9086777 L104.868472,61.5169421 L107.676643,61.5169421 C108.535974,61.5169421 109.594793,61.088843 109.594793,59.7128099 C109.594793,58.2756198 108.720116,57.9086777 107.707333,57.9086777 L104.868472,57.9086777 Z M102.950322,67.2657025 L102.950322,56.3491736 L107.784059,56.3491736 C110.91448,56.3491736 111.512942,58.3673554 111.512942,59.7280992 C111.512942,61.0735537 110.91448,63.0917355 107.784059,63.0764463 L104.868472,63.0764463 L104.868472,67.2657025 L102.950322,67.2657025 Z M119.906765,59.361157 L119.906765,67.2657025 L118.188103,67.2657025 L118.188103,66.164876 L118.157413,66.164876 C117.727747,66.9599174 116.776345,67.4797521 115.901669,67.4797521 C113.830067,67.4797521 112.940046,66.4400826 112.940046,64.3760331 L112.940046,59.361157 L114.689398,59.361157 L114.689398,64.2078512 C114.689398,65.5991736 115.257171,66.103719 116.208573,66.103719 C117.666367,66.103719 118.157413,65.1710744 118.157413,63.9479339 L118.157413,59.361157 L119.906765,59.361157 Z M127.901613,63.3210744 C127.901613,61.8838843 127.149699,60.5231405 125.70725,60.5231405 C124.234111,60.5231405 123.482197,61.6392562 123.482197,63.3210744 C123.482197,64.911157 124.295492,66.103719 125.70725,66.103719 C127.303151,66.103719 127.901613,64.6971074 127.901613,63.3210744 Z M121.794225,67.2657025 L121.794225,56.3491736 L123.543577,56.3491736 L123.543577,60.3855372 L123.574268,60.3855372 C124.049969,59.6210744 125.047407,59.1471074 125.937428,59.1471074 C128.438695,59.1471074 129.650966,61.0429752 129.650966,63.3516529 C129.650966,65.4768595 128.576802,67.4797521 126.228987,67.4797521 C125.154823,67.4797521 124.003933,67.2198347 123.482197,66.1801653 L123.451506,66.1801653 L123.451506,67.2657025 L121.794225,67.2657025 Z M131.170141,67.2657025 L131.170141,56.3491736 L132.919493,56.3491736 L132.919493,67.2657025 L131.170141,67.2657025 Z M134.868333,67.2657025 L134.868333,59.361157 L136.617686,59.361157 L136.617686,67.2657025 L134.868333,67.2657025 Z M134.868333,58.0004132 L134.868333,56.3491736 L136.617686,56.3491736 L136.617686,58.0004132 L134.868333,58.0004132 Z M145.625317,62.0061983 L143.875964,62.0061983 C143.737857,61.0429752 143.031978,60.5231405 142.065231,60.5231405 C141.159864,60.5231405 139.886213,60.9971074 139.886213,63.3975207 C139.886213,64.7123967 140.46933,66.103719 141.988505,66.103719 C143.001288,66.103719 143.707167,65.4309917 143.875964,64.2995868 L145.625317,64.2995868 C145.303068,66.3483471 144.029416,67.4797521 141.988505,67.4797521 C139.502583,67.4797521 138.13686,65.7214876 138.13686,63.3975207 C138.13686,61.0123967 139.441202,59.1471074 142.049886,59.1471074 C143.891309,59.1471074 145.45652,60.0644628 145.625317,62.0061983 Z M147.098456,67.2657025 L147.098456,59.361157 L148.847808,59.361157 L148.847808,67.2657025 L147.098456,67.2657025 Z M147.098456,58.0004132 L147.098456,56.3491736 L148.847808,56.3491736 L148.847808,58.0004132 L147.098456,58.0004132 Z M149.952663,60.6607438 L149.952663,59.361157 L151.27235,59.361157 L151.27235,56.9913223 L153.021702,56.9913223 L153.021702,59.361157 L154.602257,59.361157 L154.602257,60.6607438 L153.021702,60.6607438 L153.021702,64.8805785 C153.021702,65.5991736 153.083083,65.9661157 153.865688,65.9661157 C154.111211,65.9661157 154.356734,65.9661157 154.602257,65.9049587 L154.602257,67.2504132 C154.218628,67.2809917 153.850343,67.3421488 153.466713,67.3421488 C151.640634,67.3421488 151.30304,66.638843 151.27235,65.3239669 L151.27235,60.6607438 L149.952663,60.6607438 Z M160.755682,64.6053719 L160.755682,63.3057851 C160.2186,63.657438 159.374614,63.6421488 158.607354,63.7797521 C157.855439,63.9020661 157.180251,64.1772727 157.180251,65.0946281 C157.180251,65.8743802 158.177689,66.103719 158.791496,66.103719 C159.558756,66.103719 160.755682,65.7061983 160.755682,64.6053719 Z M162.505034,61.4404959 L162.505034,65.507438 C162.505034,65.9355372 162.597105,66.103719 162.919355,66.103719 C163.026771,66.103719 163.164878,66.103719 163.34902,66.0731405 L163.34902,67.2809917 C163.088152,67.3727273 162.535725,67.4797521 162.244166,67.4797521 C161.538287,67.4797521 161.031895,67.235124 160.893789,66.5165289 C160.203255,67.1892562 159.083055,67.4797521 158.146998,67.4797521 C156.719895,67.4797521 155.430898,66.7152893 155.430898,65.1710744 C155.430898,63.1987603 157.011454,62.877686 158.484592,62.7095041 C159.742899,62.4801653 160.863098,62.6177686 160.863098,61.5933884 C160.863098,60.6913223 159.927041,60.5231405 159.221162,60.5231405 C158.239069,60.5231405 157.548535,60.9206612 157.471809,61.7768595 L155.722457,61.7768595 C155.845218,59.7433884 157.579226,59.1471074 159.328578,59.1471074 C160.878443,59.1471074 162.505034,59.7739669 162.505034,61.4404959 Z M164.392494,67.2657025 L164.392494,59.361157 L166.03443,59.361157 L166.03443,60.8900826 L166.06512,60.8900826 C166.264608,60.0491736 167.308081,59.1471074 168.382245,59.1471074 C168.78122,59.1471074 168.888637,59.177686 169.042088,59.1929752 L169.042088,60.8747934 C168.796565,60.8442149 168.535697,60.7983471 168.290174,60.7983471 C167.093248,60.7983471 166.141846,61.7615702 166.141846,63.5045455 L166.141846,67.2657025 L164.392494,67.2657025 Z M169.840039,67.2657025 L169.840039,59.361157 L171.589391,59.361157 L171.589391,67.2657025 L169.840039,67.2657025 Z M169.840039,58.0004132 L169.840039,56.3491736 L171.589391,56.3491736 L171.589391,58.0004132 L169.840039,58.0004132 Z M178.387314,64.6053719 L178.387314,63.3057851 C177.850232,63.657438 177.006246,63.6421488 176.238986,63.7797521 C175.487072,63.9020661 174.811883,64.1772727 174.811883,65.0946281 C174.811883,65.8743802 175.809321,66.103719 176.423129,66.103719 C177.190388,66.103719 178.387314,65.7061983 178.387314,64.6053719 Z M180.136666,61.4404959 L180.136666,65.507438 C180.136666,65.9355372 180.228738,66.103719 180.550987,66.103719 C180.658403,66.103719 180.79651,66.103719 180.980652,66.0731405 L180.980652,67.2809917 C180.719784,67.3727273 180.167357,67.4797521 179.875798,67.4797521 C179.169919,67.4797521 178.663527,67.235124 178.525421,66.5165289 C177.834887,67.1892562 176.714687,67.4797521 175.77863,67.4797521 C174.351527,67.4797521 173.06253,66.7152893 173.06253,65.1710744 C173.06253,63.1987603 174.643086,62.877686 176.116225,62.7095041 C177.374531,62.4801653 178.49473,62.6177686 178.49473,61.5933884 C178.49473,60.6913223 177.558673,60.5231405 176.852794,60.5231405 C175.870701,60.5231405 175.180168,60.9206612 175.103442,61.7768595 L173.354089,61.7768595 C173.476851,59.7433884 175.210858,59.1471074 176.960211,59.1471074 C178.510075,59.1471074 180.136666,59.7739669 180.136666,61.4404959 Z M181.59446,64.727686 L183.343813,64.727686 C183.435884,65.7367769 184.203144,66.103719 185.139201,66.103719 C185.799044,66.103719 186.949934,65.9661157 186.903899,65.0640496 C186.857863,64.1466942 185.584212,64.0396694 184.31056,63.7491736 C183.021564,63.4739669 181.763257,63.0152893 181.763257,61.4099174 C181.763257,59.6822314 183.635372,59.1471074 185.07782,59.1471074 C186.704411,59.1471074 188.17755,59.8198347 188.392383,61.5780992 L186.566304,61.5780992 C186.412852,60.7524793 185.722318,60.5231405 184.955059,60.5231405 C184.448667,60.5231405 183.51261,60.6454545 183.51261,61.3334711 C183.51261,62.1896694 184.801607,62.3119835 186.090603,62.6024793 C187.364255,62.8929752 188.653251,63.3516529 188.653251,64.911157 C188.653251,66.7917355 186.750447,67.4797521 185.10851,67.4797521 C183.113635,67.4797521 181.625151,66.5929752 181.59446,64.727686 Z M194.499771,67.2657025 L194.499771,56.3491736 L196.417921,56.3491736 L196.417921,67.2657025 L194.499771,67.2657025 Z M204.673638,63.3210744 C204.673638,61.8838843 203.921723,60.5231405 202.479274,60.5231405 C201.006135,60.5231405 200.254221,61.6392562 200.254221,63.3210744 C200.254221,64.911157 201.067516,66.103719 202.479274,66.103719 C204.075175,66.103719 204.673638,64.6971074 204.673638,63.3210744 Z M198.566249,67.2657025 L198.566249,56.3491736 L200.315601,56.3491736 L200.315601,60.3855372 L200.346292,60.3855372 C200.821993,59.6210744 201.819431,59.1471074 202.709452,59.1471074 C205.210719,59.1471074 206.42299,61.0429752 206.42299,63.3516529 C206.42299,65.4768595 205.348826,67.4797521 203.001011,67.4797521 C201.926847,67.4797521 200.775957,67.2198347 200.254221,66.1801653 L200.22353,66.1801653 L200.22353,67.2657025 L198.566249,67.2657025 Z M215.093027,63.7644628 L209.261852,63.7644628 C209.261852,65.0028926 209.93704,66.103719 211.394834,66.103719 C212.407617,66.103719 213.021425,65.6603306 213.328329,64.788843 L214.98561,64.788843 C214.60198,66.5165289 213.128841,67.4797521 211.394834,67.4797521 C208.908912,67.4797521 207.512499,65.7520661 207.512499,63.3210744 C207.512499,61.0735537 208.985638,59.1471074 211.348799,59.1471074 C213.850066,59.1471074 215.384586,61.3946281 215.093027,63.7644628 Z M209.261852,62.6177686 L213.343674,62.6177686 C213.282293,61.5169421 212.530379,60.5231405 211.348799,60.5231405 C210.136528,60.5231405 209.307887,61.4404959 209.261852,62.6177686 Z M216.428059,67.2657025 L216.428059,59.361157 L218.069995,59.361157 L218.069995,60.8900826 L218.100686,60.8900826 C218.300173,60.0491736 219.343647,59.1471074 220.41781,59.1471074 C220.816786,59.1471074 220.924202,59.177686 221.077654,59.1929752 L221.077654,60.8747934 C220.832131,60.8442149 220.571262,60.7983471 220.325739,60.7983471 C219.128814,60.7983471 218.177412,61.7615702 218.177412,63.5045455 L218.177412,67.2657025 L216.428059,67.2657025 Z M225.190167,66.103719 C226.755377,66.103719 227.445911,64.6818182 227.445911,63.3057851 C227.445911,61.9450413 226.755377,60.5231405 225.190167,60.5231405 C223.624957,60.5231405 222.934423,61.9450413 222.934423,63.3057851 C222.934423,64.6818182 223.624957,66.103719 225.190167,66.103719 Z M225.190167,67.4797521 C222.642864,67.4797521 221.18507,65.7367769 221.18507,63.3057851 C221.18507,60.8900826 222.642864,59.1471074 225.190167,59.1471074 C227.73747,59.1471074 229.195263,60.8900826 229.195263,63.3057851 C229.195263,65.7367769 227.73747,67.4797521 225.190167,67.4797521 Z M235.548175,64.6053719 L235.548175,63.3057851 C235.011093,63.657438 234.167108,63.6421488 233.399848,63.7797521 C232.647933,63.9020661 231.972744,64.1772727 231.972744,65.0946281 C231.972744,65.8743802 232.970182,66.103719 233.58399,66.103719 C234.35125,66.103719 235.548175,65.7061983 235.548175,64.6053719 Z M237.297528,61.4404959 L237.297528,65.507438 C237.297528,65.9355372 237.389599,66.103719 237.711848,66.103719 C237.819265,66.103719 237.957371,66.103719 238.141514,66.0731405 L238.141514,67.2809917 C237.880645,67.3727273 237.328218,67.4797521 237.03666,67.4797521 C236.33078,67.4797521 235.824389,67.235124 235.686282,66.5165289 C234.995748,67.1892562 233.875549,67.4797521 232.939492,67.4797521 C231.512388,67.4797521 230.223392,66.7152893 230.223392,65.1710744 C230.223392,63.1987603 231.803947,62.877686 233.277086,62.7095041 C234.535392,62.4801653 235.655592,62.6177686 235.655592,61.5933884 C235.655592,60.6913223 234.719535,60.5231405 234.013656,60.5231405 C233.031563,60.5231405 232.341029,60.9206612 232.264303,61.7768595 L230.51495,61.7768595 C230.637712,59.7433884 232.371719,59.1471074 234.121072,59.1471074 C235.670937,59.1471074 237.297528,59.7739669 237.297528,61.4404959 Z M239.184987,67.2657025 L239.184987,59.361157 L240.842269,59.361157 L240.842269,60.4619835 L240.888304,60.4619835 C241.410041,59.6822314 242.069884,59.1471074 243.328191,59.1471074 C244.294938,59.1471074 245.200305,59.5599174 245.553244,60.4619835 C246.136362,59.6516529 246.888276,59.1471074 248.039166,59.1471074 C249.711793,59.1471074 250.693885,59.8809917 250.693885,61.807438 L250.693885,67.2657025 L248.944533,67.2657025 L248.944533,62.6483471 C248.944533,61.3946281 248.867807,60.5231405 247.502084,60.5231405 C246.320504,60.5231405 245.814113,61.3028926 245.814113,62.6330579 L245.814113,67.2657025 L244.06476,67.2657025 L244.06476,62.1896694 C244.06476,61.1041322 243.727166,60.5231405 242.668347,60.5231405 C241.76298,60.5231405 240.93434,61.2570248 240.93434,62.5719008 L240.93434,67.2657025 L239.184987,67.2657025 Z M259.732207,63.7644628 L253.901032,63.7644628 C253.901032,65.0028926 254.57622,66.103719 256.034014,66.103719 C257.046797,66.103719 257.660605,65.6603306 257.967509,64.788843 L259.624791,64.788843 C259.241161,66.5165289 257.768022,67.4797521 256.034014,67.4797521 C253.548092,67.4797521 252.151679,65.7520661 252.151679,63.3210744 C252.151679,61.0735537 253.624818,59.1471074 255.987979,59.1471074 C258.489246,59.1471074 260.023766,61.3946281 259.732207,63.7644628 Z M253.901032,62.6177686 L257.982854,62.6177686 C257.921474,61.5169421 257.169559,60.5231405 255.987979,60.5231405 C254.775708,60.5231405 253.947067,61.4404959 253.901032,62.6177686 Z M261.067239,67.2657025 L261.067239,59.361157 L262.709175,59.361157 L262.709175,60.8900826 L262.739866,60.8900826 C262.939353,60.0491736 263.982827,59.1471074 265.056991,59.1471074 C265.455966,59.1471074 265.563382,59.177686 265.716834,59.1929752 L265.716834,60.8747934 C265.471311,60.8442149 265.210442,60.7983471 264.964919,60.7983471 C263.767994,60.7983471 262.816592,61.7615702 262.816592,63.5045455 L262.816592,67.2657025 L261.067239,67.2657025 Z M266.514784,67.2657025 L266.514784,59.361157 L268.264137,59.361157 L268.264137,67.2657025 L266.514784,67.2657025 Z M266.514784,58.0004132 L266.514784,56.3491736 L268.264137,56.3491736 L268.264137,58.0004132 L266.514784,58.0004132 Z M277.271768,62.0061983 L275.522415,62.0061983 C275.384309,61.0429752 274.678429,60.5231405 273.711682,60.5231405 C272.806315,60.5231405 271.532664,60.9971074 271.532664,63.3975207 C271.532664,64.7123967 272.115781,66.103719 273.634956,66.103719 C274.647739,66.103719 275.353618,65.4309917 275.522415,64.2995868 L277.271768,64.2995868 C276.949519,66.3483471 275.675867,67.4797521 273.634956,67.4797521 C271.149034,67.4797521 269.783311,65.7214876 269.783311,63.3975207 C269.783311,61.0123967 271.087653,59.1471074 273.696337,59.1471074 C275.537761,59.1471074 277.102971,60.0644628 277.271768,62.0061983 Z M283.593989,64.6053719 L283.593989,63.3057851 C283.056907,63.657438 282.212922,63.6421488 281.445662,63.7797521 C280.693747,63.9020661 280.018558,64.1772727 280.018558,65.0946281 C280.018558,65.8743802 281.015996,66.103719 281.629804,66.103719 C282.397064,66.103719 283.593989,65.7061983 283.593989,64.6053719 Z M285.343342,61.4404959 L285.343342,65.507438 C285.343342,65.9355372 285.435413,66.103719 285.757662,66.103719 C285.865079,66.103719 286.003185,66.103719 286.187328,66.0731405 L286.187328,67.2809917 C285.926459,67.3727273 285.374032,67.4797521 285.082474,67.4797521 C284.376594,67.4797521 283.870203,67.235124 283.732096,66.5165289 C283.041562,67.1892562 281.921363,67.4797521 280.985306,67.4797521 C279.558202,67.4797521 278.269206,66.7152893 278.269206,65.1710744 C278.269206,63.1987603 279.849761,62.877686 281.3229,62.7095041 C282.581206,62.4801653 283.701406,62.6177686 283.701406,61.5933884 C283.701406,60.6913223 282.765349,60.5231405 282.05947,60.5231405 C281.077377,60.5231405 280.386843,60.9206612 280.310117,61.7768595 L278.560764,61.7768595 C278.683526,59.7433884 280.417533,59.1471074 282.166886,59.1471074 C283.716751,59.1471074 285.343342,59.7739669 285.343342,61.4404959 Z M287.230801,67.2657025 L287.230801,59.361157 L288.888083,59.361157 L288.888083,60.5231405 L288.918773,60.553719 C289.44051,59.6822314 290.345876,59.1471074 291.38935,59.1471074 C293.108012,59.1471074 294.197521,60.0644628 294.197521,61.8380165 L294.197521,67.2657025 L292.448168,67.2657025 L292.448168,62.2966942 C292.417478,61.0582645 291.926432,60.5231405 290.898303,60.5231405 C289.732068,60.5231405 288.980154,61.4404959 288.980154,62.6024793 L288.980154,67.2657025 L287.230801,67.2657025 Z M300.934063,64.6053719 L300.934063,63.3057851 C300.396981,63.657438 299.552995,63.6421488 298.785735,63.7797521 C298.03382,63.9020661 297.358632,64.1772727 297.358632,65.0946281 C297.358632,65.8743802 298.35607,66.103719 298.969877,66.103719 C299.737137,66.103719 300.934063,65.7061983 300.934063,64.6053719 Z M302.683415,61.4404959 L302.683415,65.507438 C302.683415,65.9355372 302.775486,66.103719 303.097736,66.103719 C303.205152,66.103719 303.343259,66.103719 303.527401,66.0731405 L303.527401,67.2809917 C303.266533,67.3727273 302.714106,67.4797521 302.422547,67.4797521 C301.716668,67.4797521 301.210276,67.235124 301.07217,66.5165289 C300.381636,67.1892562 299.261436,67.4797521 298.325379,67.4797521 C296.898276,67.4797521 295.609279,66.7152893 295.609279,65.1710744 C295.609279,63.1987603 297.189834,62.877686 298.662973,62.7095041 C299.92128,62.4801653 301.041479,62.6177686 301.041479,61.5933884 C301.041479,60.6913223 300.105422,60.5231405 299.399543,60.5231405 C298.41745,60.5231405 297.726916,60.9206612 297.65019,61.7768595 L295.900838,61.7768595 C296.023599,59.7433884 297.757607,59.1471074 299.506959,59.1471074 C301.056824,59.1471074 302.683415,59.7739669 302.683415,61.4404959 Z M304.141209,64.727686 L305.890562,64.727686 C305.982633,65.7367769 306.749893,66.103719 307.68595,66.103719 C308.345793,66.103719 309.496683,65.9661157 309.450647,65.0640496 C309.404612,64.1466942 308.13096,64.0396694 306.857309,63.7491736 C305.568312,63.4739669 304.310006,63.0152893 304.310006,61.4099174 C304.310006,59.6822314 306.18212,59.1471074 307.624569,59.1471074 C309.25116,59.1471074 310.724299,59.8198347 310.939132,61.5780992 L309.113053,61.5780992 C308.959601,60.7524793 308.269067,60.5231405 307.501807,60.5231405 C306.995416,60.5231405 306.059359,60.6454545 306.059359,61.3334711 C306.059359,62.1896694 307.348355,62.3119835 308.637352,62.6024793 C309.911003,62.8929752 311.2,63.3516529 311.2,64.911157 C311.2,66.7917355 309.297195,67.4797521 307.655259,67.4797521 C305.660384,67.4797521 304.171899,66.5929752 304.141209,64.727686 Z" id="Combined-Shape" fill="#4D2D80" fill-rule="nonzero"></path>
            </g>
        </g>
    </g>
</svg>