<?xml version="1.0" encoding="UTF-8"?>
<svg width="364px" height="137px" viewBox="0 0 364 137" version="1.1" xmlns="http://www.w3.org/2000/svg" xmlns:xlink="http://www.w3.org/1999/xlink">
    <!-- Generator: Sketch 56.3 (81716) - https://sketch.com -->
    <title>dks</title>
    <desc>Created with Sketch.</desc>
    <defs>
        <linearGradient x1="0.520017252%" y1="0%" x2="90.6500948%" y2="100%" id="linearGradient-1">
            <stop stop-color="#3A2D9D" offset="0%"></stop>
            <stop stop-color="#382B9A" offset="6.1584377%"></stop>
            <stop stop-color="#382B9A" offset="6.1584377%"></stop>
            <stop stop-color="#1B1464" offset="100%"></stop>
        </linearGradient>
    </defs>
    <g id="Page-1" stroke="none" stroke-width="1" fill="none" fill-rule="evenodd">
        <g id="dks" fill-rule="nonzero">
            <rect id="Rectangle" fill="#FFFFFF" x="11" y="18" width="90" height="101"></rect>
            <path d="M102.989545,0.0038520014 C106.440845,0.0038520014 107.998894,1.56179543 107.998894,5.03971865 C108.000369,47.4157799 108.000369,89.7908521 107.998894,132.165924 C107.998894,135.546909 106.543077,137 103.18811,137 C70.3865063,137 37.5858855,137 4.78526459,137 C1.48632897,137 0.028545441,135.542952 0.028545441,132.247036 C0.0275624447,111.059006 0.028545441,89.8709748 0.028545441,68.6839334 C0.028545441,47.456336 0.044273382,26.2297276 1.91791344e-05,5.0021302 C-0.00389343724,3.23052594 0.59081933,1.86942743 1.79892179,0.700227984 C2.26977703,0.244220416 2.89496268,0.0879314881 3.5270293,0.0285812621 C3.99493554,-0.0159314072 4.46873976,0.00484117183 4.94057799,0.00484117183 C37.6232392,0.0038520014 70.3059007,0.0038520014 102.989545,0.0038520014 Z M50.3131327,85.2881219 C50.8527976,79.8516411 50.3898065,74.3854854 50.528409,69.9411425 C50.528409,64.7044745 50.5333238,60.4747817 50.5264429,56.2450889 C50.5225109,54.0273689 50.3141157,51.8294321 49.8756994,49.6522679 C48.0070233,40.3817628 41.8515005,34.3379313 32.5612024,33.0569557 C26.9070077,32.2774893 21.1840031,32.8601107 15.4944204,32.7394318 C14.806323,32.7245944 14.7640542,33.1390567 14.7670032,33.6643061 C14.7778161,35.798936 14.8249999,37.9355443 14.7473432,40.0672064 C14.7109724,41.097922 15.089426,41.3145503 16.0301534,41.3046586 C20.3514052,41.2621242 24.672657,41.2739944 28.9939087,41.289821 C33.3849532,41.3066371 36.4460038,43.3977433 38.2281762,47.4048726 C39.3851628,50.0063909 39.8796098,52.7790357 39.9002528,55.5942146 C39.9631645,64.4087124 39.9356406,73.2232102 39.9258108,82.0377077 C39.9248277,83.5016802 39.7154495,84.951804 39.4628195,86.3920361 C39.3822137,86.8579354 39.2691692,87.3198779 39.1472777,87.7768748 C37.6462423,93.4289946 34.2362282,96.1096464 28.4208218,96.1551483 C24.2568495,96.1868017 20.0928772,96.1897692 15.9289048,96.1403107 C14.9812963,96.1294298 14.7227683,96.433105 14.7512752,97.3530336 C14.814187,99.3669846 14.8249999,101.386871 14.7483262,103.399832 C14.7099894,104.417689 15.0678,104.656079 16.0213065,104.646479 C20.4605178,104.601674 24.8997291,104.658057 29.3389405,104.617501 C33.1165952,104.581891 36.7674437,103.875624 40.110614,102.025875 C46.6563864,98.4035326 49.5984944,92.4873042 50.3131327,85.2881219 Z M91.6055108,103.68102 C92.9581136,103.553417 92.9659776,103.548471 92.2061213,102.434665 C84.6016619,91.2946279 77.0040834,80.1496446 69.3671851,69.032358 C68.7911493,68.1935416 68.7419996,67.6475196 69.3229505,66.7701253 C76.0928459,56.5421031 82.8126086,46.280449 89.5451504,36.0267083 C90.231282,34.981155 90.2126049,34.9603825 88.9868086,34.8456388 C86.3219056,34.5963678 83.6638836,34.5172343 80.9901336,34.8021154 C80.0376101,34.9030108 79.4350335,35.2244911 78.9081473,36.0405567 C72.086153,46.6128102 65.2425327,57.1702261 58.3674565,67.7068698 C57.8474515,68.5051303 57.8838222,69.0125746 58.4185723,69.7801709 C65.977814,80.6155438 73.5114977,91.4687218 81.0107766,102.34564 C81.6310473,103.244796 82.2827738,103.722565 83.3768485,103.733446 C84.6694887,103.745316 85.9601628,103.890724 87.25182,103.97876 C87.2537861,103.937215 87.254769,103.896659 87.2567351,103.856103 C88.1198057,103.856103 88.9848425,103.876876 89.8479134,103.84819 C90.4347621,103.828406 91.0196449,103.736413 91.6055108,103.68102 Z" id="Combined-Shape-Copy" fill="url(#linearGradient-1)"></path>
            <path d="M333.750706,71.3895023 C334.710542,71.3147658 334.970878,71.7474516 334.96888,72.6393742 C334.948016,82.9726974 334.946027,93.3060207 334.970878,103.639344 C334.972856,104.588302 334.599256,104.834147 333.701023,104.845947 C329.857709,104.897083 329.866652,104.915767 328.045349,101.563435 C324.342134,94.747651 320.628982,87.9367835 316.918811,81.1249324 C316.790632,80.888922 316.64457,80.6617621 316.375302,80.2064585 C316.375302,84.1301319 316.368345,87.7735428 316.376295,91.4159705 C316.386232,95.4232308 316.377289,99.4314744 316.444855,103.437751 C316.463734,104.524383 316.096094,104.858731 315.012056,104.851847 C311.807637,104.83218 311.806644,104.871515 311.806644,101.65784 C311.806644,92.1505529 311.806644,82.6422828 311.807637,73.1340129 C311.807637,71.4052364 311.8136,71.369835 313.485858,71.4052364 C317.53684,71.4917737 316.375302,70.681471 318.384397,74.3337325 C322.180021,81.2331039 325.933909,88.1560764 329.71264,95.0652815 C329.852739,95.3209597 329.898446,95.6739919 330.416122,95.7978972 C330.416122,93.4977791 330.432021,91.2389627 330.413141,88.9821129 C330.367435,83.6010751 330.331665,78.2210209 330.227336,72.8419498 C330.205476,71.6943493 330.592987,71.2714971 331.727698,71.3865524 C332.396403,71.4534218 333.080014,71.4416213 333.750706,71.3895023 Z M233.725423,97.4671635 C233.726416,99.2883772 233.963891,101.082056 234.639552,102.780348 C234.974401,103.622119 234.727984,104.015469 233.922159,104.261314 C233.316052,104.446189 232.730811,104.697933 232.136627,104.920176 C230.701842,105.4571 230.651167,105.433499 230.129518,103.95745 C229.543283,102.30341 229.550238,102.312261 228.083658,103.325139 C224.732183,105.640008 221.049833,106.119896 217.17969,105.046048 C213.753694,104.096106 211.669082,101.239397 211.538918,97.2980226 C211.422665,93.7657332 211.480295,90.2275437 211.474333,86.6913208 C211.466384,82.1727047 211.503148,77.6540883 211.45148,73.1364553 C211.438563,72.026223 211.854889,71.6210718 212.931971,71.5109336 C216.093665,71.1874027 216.090684,71.1549512 216.090684,74.3233912 C216.090684,81.0418212 216.088697,87.7602513 216.091678,94.4786816 C216.092671,95.8603259 216.214886,97.2262363 216.691823,98.5390442 C217.185651,99.8941374 218.127602,100.804744 219.537546,101.147943 C222.9546,101.979879 225.876831,101.069273 228.356903,98.6295148 C228.896438,98.0984914 228.939163,97.4730639 228.93817,96.789617 C228.930221,88.9314532 228.932208,81.0732894 228.934195,73.2151255 C228.934195,71.5473186 228.937176,71.5473186 230.645206,71.5424015 C233.696608,71.5345347 233.696608,71.5345347 233.696608,74.6007033 L233.696608,85.5624042 C233.70555,85.5624042 233.715486,85.5624042 233.724429,85.5624042 C233.724429,89.5303296 233.722442,93.4992383 233.725423,97.4671635 Z M148.350167,94.7521962 C148.363085,95.2625687 148.336257,95.7749081 148.362091,96.2842971 C148.667132,102.276995 144.620124,105.386433 139.196955,105.878121 C138.567995,105.935157 137.928104,105.885005 137.294176,105.885005 C133.700258,106.002026 130.456094,105.116987 127.867718,102.494322 C127.141383,101.758756 126.596881,100.893384 126.142797,99.9670433 C125.841731,99.3524328 126.017601,99.0043174 126.662459,98.8351766 C126.930736,98.7643733 127.201001,98.6916034 127.457354,98.5893323 C129.105767,97.9324367 130.342822,97.7052767 131.762702,99.5235403 C133.74199,102.058686 138.663382,102.360582 141.44452,100.654423 C144.555539,98.7456893 144.526724,93.78062 141.4008,91.9013868 C139.781202,90.927844 137.946983,90.8226227 136.143566,90.5551442 C133.114023,90.1067243 130.217626,89.3455908 128.170772,86.8301129 C127.923361,86.5252662 127.702778,86.1938682 127.51399,85.8506696 C124.063154,79.5875429 127.738548,72.3302224 134.840932,71.5150029 C137.702553,71.1865551 140.554238,71.3311116 143.184345,72.7668417 C145.031482,73.7738193 146.32716,75.2449511 147.17273,77.1428683 C147.46386,77.7968139 147.374434,78.1852477 146.620278,78.3396379 C146.272512,78.4104409 145.925739,78.5136955 145.595857,78.6474348 C144.052768,79.2728623 142.92203,79.3387487 141.814146,77.5883379 C140.466799,75.4622774 136.342289,75.038442 133.698271,76.3443664 C131.672283,77.3444605 130.730333,79.7458665 131.322529,82.3380478 C131.61366,83.6105372 132.330058,84.5349115 133.494579,85.1328047 C134.932345,85.8713205 136.503256,86.0935637 138.080128,86.3000728 C140.175669,86.5734516 142.230472,86.9982704 144.111391,88.0072149 C146.81304,89.4567122 148.270678,91.6840607 148.350167,94.7521962 Z M363.930796,94.4918239 C363.9924,95.901003 364.088782,97.3259159 363.825474,98.7262444 C363.045483,102.86331 359.724809,105.537112 354.946499,105.884244 C354.237054,105.935379 353.518669,105.891127 352.805251,105.891127 C349.248098,106.01995 346.051627,105.11426 343.483123,102.537813 C342.750828,101.802247 342.200363,100.946709 341.759196,100.011518 C341.477008,99.4146082 341.593261,99.0399415 342.253025,98.8580168 C342.596816,98.7626294 342.945577,98.6721586 343.272477,98.5335025 C344.832459,97.8736567 345.95624,97.7861361 347.25788,99.4539433 C349.295792,102.064809 354.316544,102.426691 357.128485,100.611378 C358.843469,99.5040954 359.397908,97.848089 359.309478,95.9285374 C359.216076,93.9076982 358.281083,92.4178824 356.368367,91.5869289 C354.891849,90.9457673 353.311004,90.7776098 351.736119,90.5740509 C349.345471,90.2652707 347.078035,89.6270591 345.103717,88.1726449 C343.554665,87.0319278 342.620663,85.4939266 342.325558,83.6540286 C342.032441,81.8298646 342.024491,79.9614489 342.361328,78.1363014 C342.825348,75.6227904 344.241254,73.7612581 346.568309,72.6077572 C350.770321,70.5239818 357.144382,71.1346588 360.443196,73.9362994 C361.457679,74.7987208 362.16315,75.8755183 362.724543,77.0634373 C363.043496,77.7370506 362.969967,78.1923539 362.1552,78.3693618 C361.807433,78.4440985 361.453705,78.5276854 361.127798,78.6643748 C359.618493,79.2937361 358.502658,79.3704392 357.435513,77.6436298 C356.181566,75.6168902 352.567777,75.1193016 349.771735,76.1606975 C347.652347,76.950349 346.644818,78.6958429 346.776968,81.3725944 C346.877324,83.3904836 347.881872,84.7603273 349.797568,85.4791758 C351.524478,86.1282047 353.361677,86.2324424 355.15516,86.5510566 C357.086752,86.8932718 358.933888,87.4537964 360.580315,88.5551784 C362.707652,89.9771413 363.820504,91.9792962 363.930796,94.4918239 Z M260.305712,71.3683174 C261.451353,71.3596269 261.826941,71.7165926 261.791171,72.8474761 C261.690815,76.068035 262.163778,75.5901139 259.026925,75.6294488 C257.519606,75.6481331 256.012287,75.6294488 254.503974,75.6343659 C252.90723,75.6382994 252.900274,75.6412494 252.899281,77.1871177 C252.897293,85.7080775 252.898287,94.228054 252.898287,102.749014 C252.898287,103.103029 252.880402,103.457045 252.897293,103.809094 C252.931076,104.482707 252.66578,104.779687 251.940439,104.830822 C248.161708,105.097317 248.162702,105.114035 248.162702,101.425388 C248.162702,97.6954405 248.162702,93.964509 248.162702,90.2345609 C248.162702,85.8368999 248.133887,81.4382556 248.182574,77.0415779 C248.194498,75.9834646 247.895418,75.5733966 246.778591,75.6127315 C244.679076,75.684518 242.573598,75.6078146 240.471102,75.6422329 C239.609635,75.6560001 239.260875,75.3383695 239.272798,74.4729979 C239.327447,70.816803 238.875351,71.4166628 242.213909,71.3989621 C248.244178,71.3665106 254.275442,71.4146961 260.305712,71.3683174 Z M204.525921,100.561984 C205.567234,100.550184 206.021317,100.804878 205.981572,101.938712 C205.863332,105.315628 206.443605,104.793455 203.093124,104.814105 C198.093236,104.84459 193.093349,104.792471 188.094455,104.843877 C186.941857,104.855407 186.600052,104.482707 186.610982,103.359691 C186.661657,98.2549823 186.633836,93.1492901 186.633836,88.043598 C186.633836,82.9782242 186.662651,77.9118671 186.610982,72.8455099 C186.600052,71.7146265 186.953781,71.3360266 188.100416,71.3704447 C191.795683,71.4815664 191.230314,70.8856399 191.242238,74.4946327 C191.271052,82.6242084 191.250187,90.7537842 191.253167,98.8823767 C191.253167,100.572801 191.260123,100.576735 192.979082,100.577718 C196.82836,100.580668 200.677638,100.606236 204.525921,100.561984 Z M155.834107,45.6330871 C155.935456,44.0183825 155.630416,41.9306735 155.988118,39.8626322 C156.462074,37.1249111 158.084653,35.3292651 160.72271,34.4806111 C162.943447,33.7666794 165.183063,33.8601002 167.37101,34.6812198 C168.310973,35.0332687 169.151574,35.5692092 169.78749,36.3480435 C170.329012,37.0098562 171.190479,37.8073747 170.786076,38.5803089 C170.418438,39.2834233 169.226096,39.1605011 168.397418,39.3994616 C167.943334,39.5302509 167.793298,39.144767 167.575696,38.8704051 C166.234311,37.1770301 164.223227,36.5624196 162.169418,37.2104649 C160.329237,37.7906573 159.204461,39.2637557 159.161735,41.423251 C159.100131,44.4854863 159.098144,47.5506718 159.164716,50.6119236 C159.21539,52.8776237 160.329237,54.396941 162.079992,54.8728952 C164.029472,55.4039186 166.759935,54.4903617 167.844966,52.9248259 C168.438156,52.0702715 168.130135,51.0908283 168.149013,50.1703875 C168.193726,48.0453103 168.162924,48.044327 166.067383,48.0433434 C165.78917,48.0433434 165.51195,48.044327 165.233737,48.0433434 C163.353811,48.0403935 163.316053,47.9784406 163.418396,46.1119915 C163.453173,45.4914809 163.645935,45.1600829 164.318614,45.1640164 C166.341621,45.1758169 168.365622,45.1787671 170.389623,45.1620495 C171.144773,45.1561493 171.317662,45.5672009 171.315692,46.212296 C171.305739,49.7072171 171.3117,53.2031216 171.30872,56.6980425 C171.30872,57.1877641 171.278911,57.7060036 170.612193,57.7128873 C169.942494,57.7197711 169.046251,58.0501855 168.824674,57.0599253 C168.522614,55.7126991 167.99699,55.931992 167.103727,56.5800373 C165.388742,57.8249924 163.403492,58.1632738 161.32683,57.852527 C157.990259,57.3539547 155.969239,54.8424106 155.84305,51.0426428 C155.788401,49.3954867 155.834107,47.7443971 155.834107,45.6330871 Z M268.517883,71.3683174 C271.731246,71.3890659 271.731246,71.3477642 271.731246,74.5525891 C271.731246,84.0972441 271.732239,93.6418991 271.730252,103.186554 C271.730252,104.815026 271.723298,104.815026 270.071904,104.82191 C267.112907,104.83666 267.112907,104.83666 267.112907,101.896364 C267.112907,97.3010441 267.112907,92.704741 267.113901,88.1094215 C267.113901,83.0027459 267.138741,77.8970536 267.09403,72.790378 C267.084094,71.717514 267.421922,71.3615316 268.517883,71.3683174 Z M189.822705,39.1300309 C189.839596,38.1496041 189.500772,37.8073891 188.521065,37.8545913 C187.214456,37.9175273 185.901887,37.8368903 184.593291,37.8752422 C183.625507,37.9027765 183.592718,37.2920998 183.646373,36.6302871 C183.700028,35.9576574 183.312517,34.9919814 184.566464,34.9900147 C189.168904,34.9811641 193.772338,34.9811641 198.375772,34.9900147 C199.628725,34.9919814 199.244194,35.9556906 199.297849,36.6283205 C199.349518,37.2891496 199.320703,37.9086769 198.351925,37.8742586 C197.282791,37.835907 196.209684,37.8693418 195.138563,37.8693418 C193.112575,37.8713087 193.111582,37.8703251 193.111582,39.8213448 C193.110588,45.2800693 193.118537,50.7397771 193.098664,56.1994849 C193.096677,56.7521427 193.399731,57.5368774 192.740962,57.802389 C191.941099,58.12592 191.009085,58.0590505 190.169478,57.8230399 C189.639879,57.6735666 189.81575,57.0914075 189.813762,56.6862563 C189.799852,53.7400595 189.806807,50.794846 189.805813,47.8486492 C189.80482,44.9427709 189.77203,42.0359093 189.822705,39.1300309 Z M220.421551,46.5272021 C220.421551,43.1089844 220.4762,39.6897833 220.394724,36.2725489 C220.361934,34.8968048 221.165772,34.9990762 222.074933,34.9862921 C223.012908,34.9735082 223.762096,34.9459739 223.749179,36.2872997 C223.692543,42.0233365 223.724339,47.7603564 223.72732,53.4963933 C223.728314,55.0688126 223.734275,55.0737297 225.306179,55.0776632 C227.687883,55.08258 230.071573,55.1366656 232.451289,55.0550454 C233.648599,55.0147269 233.817514,55.5654179 233.811553,56.5468281 C233.806585,57.4771025 233.654561,58.0002589 232.517861,57.9815746 C228.906059,57.9245388 225.292269,57.9333891 221.680466,57.9786244 C220.67095,57.990425 220.393754,57.6098582 220.40466,56.6638499 C220.446392,53.2859506 220.421551,49.9060847 220.421551,46.5272021 Z M178.373849,34.9840174 C179.427085,34.9732004 180.050083,35.0853052 180.03816,36.4148307 C179.975562,43.1637455 179.975562,49.9126604 180.037166,56.6605917 C180.04909,57.987167 179.369455,57.9960173 178.409619,57.9852003 C177.445809,57.9743831 176.638991,58.0569867 176.675755,56.6369906 C176.764187,53.2649917 176.70457,49.8890593 176.70457,46.5141102 C176.70457,43.1401445 176.760213,39.7642121 176.676749,36.3922129 C176.642966,35.0331864 177.352409,34.9938513 178.373849,34.9840174 Z M150.078487,46.5939916 C150.078487,49.9325558 150.028806,53.2721032 150.104321,56.6096841 C150.132142,57.8585724 149.552863,58.0227964 148.5195,57.9972287 C147.557677,57.9746109 146.856183,57.9775611 146.867112,56.6627864 C146.918781,49.9069878 146.919774,43.1502062 146.866119,36.395391 C146.855189,35.0353809 147.572582,35.022597 148.585079,34.9862121 C149.709855,34.946877 150.121212,35.3107264 150.100347,36.4602938 C150.038742,39.8372098 150.078487,43.2160924 150.078487,46.5939916 Z M303.226904,88.6840776 C303.228891,90.9232265 303.152385,93.1643422 303.243797,95.3995575 C303.472329,100.991038 299.225605,105.186123 293.6832,105.858753 C290.466858,106.249154 287.327023,105.889238 284.543897,104.032622 C281.59782,102.067835 280.070628,99.2996298 280.036845,95.7889749 C279.992132,91.2339736 280.016972,86.677989 280.024922,82.1220043 C280.035852,76.371217 283.757946,72.1721981 289.550742,71.5064522 C293.336427,71.0708162 296.933326,71.5851222 299.92511,74.2127051 C302.054436,76.0830877 303.191135,78.4313913 303.219948,81.2615496 C303.245784,83.7357257 303.224918,86.2099015 303.226904,88.6840776 Z M298.458531,95.0730766 C298.486351,92.9519327 298.463498,90.830789 298.463498,88.708662 C298.464491,86.5481832 298.486351,84.3877044 298.459524,82.2272256 C298.408848,78.2406163 295.793645,75.6710527 291.795325,75.6432655 C287.64498,75.6140169 284.861858,78.169813 284.807208,82.1878905 C284.748585,86.5078648 284.745602,90.830789 284.809195,95.1517466 C284.869805,99.179658 287.63604,101.701036 291.814205,101.675661 C295.809544,101.651867 298.404875,99.086237 298.458531,95.0730766 Z M179.156327,89.2021485 C179.06392,91.2967411 179.35207,93.9361243 179.030137,96.5558402 C178.400183,101.671366 174.99406,105.135802 169.753716,105.817282 C165.61629,106.356173 161.730248,105.713045 158.637114,102.613441 C156.829722,100.802061 155.883798,98.5658621 155.853989,96.0336671 C155.798347,91.1246501 155.789404,86.2126833 155.852002,81.3026829 C155.916587,76.2048577 160.018244,72.0461575 165.476189,71.4816991 C168.838594,71.1335837 172.065866,71.5249677 174.912583,73.5300728 C177.874559,75.6167984 179.077831,78.5826628 179.147384,82.0687336 C179.192097,84.267564 179.156327,86.4683612 179.156327,89.2021485 Z M174.339265,95.2095973 C174.524078,90.8591385 174.486321,86.4919623 174.348208,82.13757 C174.219037,78.0595064 171.230233,75.3807881 167.323326,75.5509123 C163.196829,75.7308701 160.615408,78.4204057 160.601498,82.5653387 C160.594542,84.5674938 160.600504,86.5706323 160.601498,88.5727875 C160.601498,90.7716179 160.551817,92.9714318 160.615408,95.1682955 C160.687942,97.6965573 161.702427,99.7468977 164.063264,100.940717 C168.825677,103.350974 174.116695,100.471646 174.339265,95.2095973 Z M127.054249,57.9590312 C126.290157,57.9668982 125.998033,57.658118 126.00001,56.9078013 C126.013931,49.9513941 126.012937,42.9949868 126.001014,36.0385795 C126.00001,35.2833461 126.316984,34.9804662 127.069153,34.9873497 C129.769808,35.013901 132.473444,34.9322808 135.16913,35.0453691 C138.595126,35.188942 141.113949,37.702453 141.298762,41.10297 C141.39713,42.9045162 141.316647,44.7168797 141.316647,46.524326 L141.333539,46.524326 C141.333539,48.1754156 141.381232,49.8274888 141.323602,51.4766115 C141.196419,55.1672245 138.650769,57.7633393 134.915758,57.9128126 C132.299561,58.0170506 129.675414,57.9314966 127.054249,57.9590312 Z M130.439507,37.8991284 C129.506499,37.8607766 129.172643,38.2344599 129.18556,39.1391664 C129.219343,41.5710572 129.197484,44.0039315 129.19649,46.4368056 C129.195497,48.8303446 129.195497,51.2238838 129.195497,53.6174227 C129.195497,53.696093 129.203446,53.774763 129.19649,53.8524497 C129.111039,54.7669901 129.529352,55.1259227 130.450437,55.0797041 C131.478832,55.0295517 132.512195,55.0797041 133.542577,55.0659367 C136.568145,55.0256182 138.059566,53.5889048 138.14303,50.5778051 C138.188737,48.9316324 138.1788,47.2815263 138.147998,45.63437 C138.118189,44.0698177 138.318901,42.4934646 137.950268,40.9426795 C137.491216,39.0073941 136.261117,37.9827155 134.245065,37.9217459 C132.977208,37.8833944 131.70637,37.9512474 130.439507,37.8991284 Z M213.32317,56.4529323 C212.937646,55.2138777 212.492505,53.9905568 212.169579,52.735768 C211.946015,51.8684298 211.528695,51.4780294 210.595688,51.547849 C209.68752,51.6166854 208.770411,51.5625995 207.63073,51.5625995 C206.567559,51.715023 205.028444,51.0394432 204.039794,51.8428621 C203.117716,52.5921952 203.197205,54.1469138 202.744115,55.3161488 C202.70139,55.4262869 202.673568,55.5413421 202.637798,55.6534469 C201.791235,58.3242982 202.364553,57.8896458 199.422449,57.9702827 C198.435786,57.996834 198.407965,57.6349512 198.686178,56.8472663 C200.050416,52.9914462 201.369941,49.1198918 202.706358,45.2542375 C203.759593,42.2057696 204.872446,39.1759857 205.838243,36.1009665 C206.200914,34.9425487 206.959045,34.987784 207.854295,34.9838505 C208.7565,34.979917 209.495752,34.9750002 209.877302,36.1029334 C212.185477,42.9187177 214.554263,49.715818 216.948884,56.5030845 C217.317516,57.5474306 217.172448,57.9378313 215.992029,58.0705872 C213.911392,58.3056142 213.922322,58.3774008 213.32317,56.4529323 Z M209.994549,48.7039234 C210.681139,48.7108071 210.807328,48.3872761 210.624503,47.8070836 C209.741176,45.0083935 208.864804,42.2067529 207.985452,39.4070792 C207.882116,39.4041293 207.77878,39.4021624 207.676437,39.3992124 C206.802053,42.2372377 205.929656,45.0762463 205.052291,47.9142718 C204.863503,48.5249488 205.191397,48.695073 205.718015,48.6960563 C207.142864,48.6999898 208.568706,48.6891726 209.994549,48.7039234 Z" id="Combined-Shape" fill="#1C1364"></path>
        </g>
    </g>
</svg>