<?xml version="1.0" encoding="UTF-8"?>
<svg width="221px" height="84px" viewBox="0 0 221 84" version="1.1" xmlns="http://www.w3.org/2000/svg" xmlns:xlink="http://www.w3.org/1999/xlink">
    <!-- Generator: Sketch 56.3 (81716) - https://sketch.com -->
    <title>isis</title>
    <desc>Created with Sketch.</desc>
    <g id="Page-1" stroke="none" stroke-width="1" fill="none" fill-rule="evenodd">
        <g id="isis">
            <g id="Group-4" transform="translate(0.000000, 4.354000)">
                <rect id="Rectangle" fill="#C4C6C8" x="0" y="0" width="220" height="51"></rect>
                <g id="Group-3">
                    <rect id="Rectangle" fill="#BCBDBF" x="0" y="0" width="12" height="12"></rect>
                    <rect id="Rectangle-Copy-4" fill="#A7A9AC" x="13" y="0" width="12" height="12"></rect>
                    <rect id="Rectangle-Copy" fill="#BCBDBF" x="0" y="13" width="12" height="12"></rect>
                    <rect id="Rectangle-Copy-5" fill="#BCBDBF" x="13" y="13" width="12" height="12"></rect>
                    <rect id="Rectangle-Copy-2" fill="#BCBDBF" x="0" y="26" width="12" height="12"></rect>
                    <rect id="Rectangle-Copy-6" fill="#D1D3D4" x="13" y="26" width="12" height="12"></rect>
                    <rect id="Rectangle-Copy-3" fill="#BCBDBF" x="0" y="39" width="12" height="12"></rect>
                    <rect id="Rectangle-Copy-7" fill="#BCBDBF" x="13" y="39" width="12" height="12"></rect>
                    <rect id="Rectangle-Copy-11" fill="#BCBDBF" x="26" y="0" width="12" height="12"></rect>
                    <rect id="Rectangle-Copy-10" fill="#BCBDBF" x="26" y="13" width="12" height="12"></rect>
                    <rect id="Rectangle-Copy-9" fill="#BCBDBF" x="26" y="26" width="12" height="12"></rect>
                    <rect id="Rectangle-Copy-8" fill="#BCBDBF" x="26" y="39" width="12" height="12"></rect>
                    <rect id="Rectangle-Copy-15" fill="#D1D3D4" x="39" y="0" width="12" height="12"></rect>
                    <rect id="Rectangle-Copy-14" fill="#A7A9AC" x="39" y="13" width="12" height="12"></rect>
                    <rect id="Rectangle-Copy-13" fill="#FFFFFF" x="39" y="26" width="12" height="12"></rect>
                    <rect id="Rectangle-Copy-12" fill="#D1D3D4" x="39" y="39" width="12" height="12"></rect>
                    <rect id="Rectangle-Copy-19" fill="#BCBDBF" x="52" y="0" width="12" height="12"></rect>
                    <rect id="Rectangle-Copy-18" fill="#8BC63C" x="52" y="13" width="12" height="12"></rect>
                    <rect id="Rectangle-Copy-17" fill="#D1D3D4" x="52" y="26" width="12" height="12"></rect>
                    <rect id="Rectangle-Copy-16" fill="#BCBDBF" x="52" y="39" width="12" height="12"></rect>
                    <rect id="Rectangle-Copy-23" fill="#D1D3D4" x="65" y="0" width="12" height="12"></rect>
                    <rect id="Rectangle-Copy-22" fill="#BCBDBF" x="65" y="13" width="12" height="12"></rect>
                    <rect id="Rectangle-Copy-21" fill="#BCBDBF" x="65" y="26" width="12" height="12"></rect>
                    <rect id="Rectangle-Copy-20" fill="#BCBDBF" x="65" y="39" width="12" height="12"></rect>
                    <rect id="Rectangle-Copy-35" fill="#BCBDBF" x="78" y="0" width="12" height="12"></rect>
                    <rect id="Rectangle-Copy-30" fill="#BCBDBF" x="78" y="13" width="12" height="12"></rect>
                    <rect id="Rectangle-Copy-29" fill="#A7A9AC" x="78" y="26" width="12" height="12"></rect>
                    <rect id="Rectangle-Copy-28" fill="#BCBDBF" x="78" y="39" width="12" height="12"></rect>
                    <rect id="Rectangle-Copy-43" fill="#8BC63C" x="91" y="0" width="12" height="12"></rect>
                    <rect id="Rectangle-Copy-42" fill="#BCBDBF" x="91" y="13" width="12" height="12"></rect>
                    <rect id="Rectangle-Copy-37" fill="#D1D3D4" x="91" y="26" width="12" height="12"></rect>
                    <rect id="Rectangle-Copy-36" fill="#BCBDBF" x="91" y="39" width="12" height="12"></rect>
                    <rect id="Rectangle-Copy-51" fill="#BCBDBF" x="104" y="0" width="12" height="12"></rect>
                    <rect id="Rectangle-Copy-50" fill="#BCBDBF" x="104" y="13" width="12" height="12"></rect>
                    <rect id="Rectangle-Copy-49" fill="#A7A9AC" x="104" y="26" width="12" height="12"></rect>
                    <rect id="Rectangle-Copy-44" fill="#BCBDBF" x="104" y="39" width="12" height="12"></rect>
                    <rect id="Rectangle-Copy-55" fill="#BCBDBF" x="117" y="0" width="12" height="12"></rect>
                    <rect id="Rectangle-Copy-54" fill="#A7A9AC" x="117" y="13" width="12" height="12"></rect>
                    <rect id="Rectangle-Copy-53" fill="#BCBDBF" x="117" y="26" width="12" height="12"></rect>
                    <rect id="Rectangle-Copy-52" fill="#BCBDBF" x="117" y="39" width="12" height="12"></rect>
                    <rect id="Rectangle-Copy-59" fill="#BCBDBF" x="130" y="0" width="12" height="12"></rect>
                    <rect id="Rectangle-Copy-58" fill="#BCBDBF" x="130" y="13" width="12" height="12"></rect>
                    <rect id="Rectangle-Copy-57" fill="#BCBDBF" x="130" y="26" width="12" height="12"></rect>
                    <rect id="Rectangle-Copy-56" fill="#BCBDBF" x="130" y="39" width="12" height="12"></rect>
                    <rect id="Rectangle-Copy-63" fill="#A7A9AC" x="143" y="0" width="12" height="12"></rect>
                    <rect id="Rectangle-Copy-62" fill="#BCBDBF" x="143" y="13" width="12" height="12"></rect>
                    <rect id="Rectangle-Copy-61" fill="#D1D3D4" x="143" y="26" width="12" height="12"></rect>
                    <rect id="Rectangle-Copy-60" fill="#BCBDBF" x="143" y="39" width="12" height="12"></rect>
                    <rect id="Rectangle-Copy-67" fill="#BCBDBF" x="156" y="0" width="12" height="12"></rect>
                    <rect id="Rectangle-Copy-66" fill="#D1D3D4" x="156" y="13" width="12" height="12"></rect>
                    <rect id="Rectangle-Copy-65" fill="#BCBDBF" x="156" y="26" width="12" height="12"></rect>
                    <rect id="Rectangle-Copy-64" fill="#BCBDBF" x="156" y="39" width="12" height="12"></rect>
                    <rect id="Rectangle-Copy-71" fill="#BCBDBF" x="169" y="0" width="12" height="12"></rect>
                    <rect id="Rectangle-Copy-70" fill="#A7A9AC" x="169" y="13" width="12" height="12"></rect>
                    <rect id="Rectangle-Copy-69" fill="#D1D3D4" x="169" y="26" width="12" height="12"></rect>
                    <rect id="Rectangle-Copy-68" fill="#A7A9AC" x="169" y="39" width="12" height="12"></rect>
                    <rect id="Rectangle-Copy-75" fill="#BCBDBF" x="182" y="0" width="12" height="12"></rect>
                    <rect id="Rectangle-Copy-74" fill="#BCBDBF" x="182" y="13" width="12" height="12"></rect>
                    <rect id="Rectangle-Copy-73" fill="#8BC63C" x="182" y="26" width="12" height="12"></rect>
                    <rect id="Rectangle-Copy-72" fill="#BCBDBF" x="182" y="39" width="12" height="12"></rect>
                    <rect id="Rectangle-Copy-79" fill="#BCBDBF" x="195" y="0" width="12" height="12"></rect>
                    <rect id="Rectangle-Copy-78" fill="#BCBDBF" x="195" y="13" width="12" height="12"></rect>
                    <rect id="Rectangle-Copy-77" fill="#D1D3D4" x="195" y="26" width="12" height="12"></rect>
                    <rect id="Rectangle-Copy-76" fill="#BCBDBF" x="195" y="39" width="12" height="12"></rect>
                    <rect id="Rectangle-Copy-83" fill="#BCBDBF" x="208" y="0" width="12" height="12"></rect>
                    <rect id="Rectangle-Copy-82" fill="#BCBDBF" x="208" y="13" width="12" height="12"></rect>
                    <rect id="Rectangle-Copy-81" fill="#BCBDBF" x="208" y="26" width="12" height="12"></rect>
                    <rect id="Rectangle-Copy-80" fill="#BCBDBF" x="208" y="39" width="12" height="12"></rect>
                </g>
            </g>
            <path d="M95.538,57.354 L95.538,1.422 L105.492,1.422 L105.492,57.354 L95.538,57.354 Z M152.813,6.004 L146.335,13.114 C144.202,10.349 140.015,8.295 136.065,8.295 C131.483,8.295 126.19,10.507 126.19,15.958 C126.19,21.093 130.535,22.594 136.855,24.569 C144.044,26.781 153.208,29.941 153.208,40.922 C153.208,52.93 143.807,58.776 132.826,58.776 C125.558,58.776 118.053,56.011 113.629,50.797 L120.739,44.161 C123.504,47.953 128.56,50.323 132.984,50.323 C137.645,50.323 143.096,48.032 143.096,42.028 C143.096,36.182 137.25,34.523 130.219,32.311 C123.425,30.178 116.078,26.86 116.078,16.432 C116.078,5.056 126.427,2.84217094e-14 136.539,2.84217094e-14 C142.148,2.84217094e-14 148.547,1.975 152.813,6.004 Z M163.162,57.354 L163.162,1.422 L173.116,1.422 L173.116,57.354 L163.162,57.354 Z M220.437,6.004 L213.959,13.114 C211.826,10.349 207.639,8.295 203.689,8.295 C199.107,8.295 193.814,10.507 193.814,15.958 C193.814,21.093 198.159,22.594 204.479,24.569 C211.668,26.781 220.832,29.941 220.832,40.922 C220.832,52.93 211.431,58.776 200.45,58.776 C193.182,58.776 185.677,56.011 181.253,50.797 L188.363,44.161 C191.128,47.953 196.184,50.323 200.608,50.323 C205.269,50.323 210.72,48.032 210.72,42.028 C210.72,36.182 204.874,34.523 197.843,32.311 C191.049,30.178 183.702,26.86 183.702,16.432 C183.702,5.056 194.051,2.84217094e-14 204.163,2.84217094e-14 C209.772,2.84217094e-14 216.171,1.975 220.437,6.004 Z" id="ISIS" fill="#FFFFFF" fill-rule="nonzero"></path>
            <g id="MediaGroup" transform="translate(0.000000, 58.000000)" fill-rule="nonzero">
                <path d="M0,0 L3.4353774,0 L12.3881791,20.9745763 L21.3409808,0 L24.6028543,0 L24.6028543,25 L22.3126027,25 L22.3126027,2.96610169 L22.2432011,2.96610169 L12.87399,25 L11.8676674,25 L2.35965316,2.96610169 L2.2902516,2.96610169 L2.2902516,25 L0,25 L0,0 Z M30.4330249,0 L45.4584634,0 L45.4584634,2.11864407 L32.7232765,2.11864407 L32.7232765,11.0169492 L44.6603454,11.0169492 L44.6603454,13.1355932 L32.7232765,13.1355932 L32.7232765,22.8813559 L46.0136759,22.8813559 L46.0136759,25 L30.4330249,25 L30.4330249,0 Z M50.0394058,0 L57.638877,0 C59.7672023,0 61.5716249,0.26482786 63.052199,0.794491525 C64.5327731,1.32415519 65.7646385,2.0009375 66.7478323,2.82485876 C67.731026,3.64878001 68.5060024,4.56096487 69.0727846,5.56144068 C69.6395669,6.56191649 70.0559721,7.52118185 70.3220128,8.43926554 C70.5880534,9.35734922 70.7557722,10.1871432 70.8251741,10.9286723 C70.894576,11.6702014 70.9292765,12.1939721 70.9292765,12.5 C70.9292765,12.8060279 70.894576,13.3297986 70.8251741,14.0713277 C70.7557722,14.8128568 70.5880534,15.6426508 70.3220128,16.5607345 C70.0559721,17.4788181 69.6395669,18.4380835 69.0727846,19.4385593 C68.5060024,20.4390351 67.731026,21.35122 66.7478323,22.1751412 C65.7646385,22.9990625 64.5327731,23.6758448 63.052199,24.2055085 C61.5716249,24.7351721 59.7672023,25 57.638877,25 L50.0394058,25 L50.0394058,0 Z M52.3296574,22.8813559 L57.0489637,22.8813559 C58.6683417,22.8813559 60.183594,22.6753787 61.5947662,22.2634181 C63.0059383,21.8514575 64.2320204,21.2217556 65.273049,20.3742938 C66.3140777,19.5268319 67.1353213,18.4498653 67.7368045,17.1433616 C68.3382878,15.8368579 68.6390249,14.2890862 68.6390249,12.5 C68.6390249,10.7109138 68.3382878,9.16314213 67.7368045,7.85663842 C67.1353213,6.55013471 66.3140777,5.47316808 65.273049,4.62570621 C64.2320204,3.77824435 63.0059383,3.14854255 61.5947662,2.73658192 C60.183594,2.32462129 58.6683417,2.11864407 57.0489637,2.11864407 L52.3296574,2.11864407 L52.3296574,22.8813559 Z M75.4061166,0 L77.6963682,0 L77.6963682,25 L75.4061166,25 L75.4061166,0 Z M91.2995139,0 L93.659167,0 L104,25 L101.432142,25 L98.760182,18.3615819 L85.7473888,18.3615819 L82.9713262,25 L80.5769723,25 L91.2995139,0 Z M92.3752381,2.54237288 L86.6496091,16.2429379 L97.9273632,16.2429379 L92.3752381,2.54237288 Z" id="MEDIA" fill="#C6C6C6"></path>
                <path d="M127.822818,23.7634409 C126.39105,24.5788571 124.907344,25.1554643 123.371656,25.4932796 C121.835969,25.8310949 120.271438,26 118.678018,26 C116.807482,26 115.092849,25.6796627 113.534068,25.0389785 C111.975288,24.3982943 110.641684,23.5013499 109.533218,22.3481183 C108.424752,21.1948867 107.558776,19.8203485 106.935264,18.2244624 C106.311751,16.6285763 106,14.8871062 106,13 C106,11.1128938 106.311751,9.37724806 106.935264,7.79301075 C107.558776,6.20877344 108.424752,4.84005953 109.533218,3.68682796 C110.641684,2.53359638 111.975288,1.63082763 113.534068,0.978494624 C115.092849,0.326161613 116.807482,0 118.678018,0 C122.326719,0 125.271038,1.14156565 127.511064,3.42473118 L125.848373,5.17204301 C125.478884,4.72938847 125.022803,4.31586214 124.480117,3.93145161 C123.93743,3.54704109 123.348566,3.22087948 122.713508,2.95295699 C122.078449,2.6850345 121.414534,2.47535918 120.721743,2.32392473 C120.028951,2.17249028 119.347717,2.09677419 118.678018,2.09677419 C117.084598,2.09677419 115.647078,2.37634129 114.365414,2.93548387 C113.08375,3.49462645 111.99262,4.26343597 111.091991,5.24193548 C110.191362,6.220435 109.498581,7.37364927 109.013627,8.7016129 C108.528673,10.0295765 108.2862,11.4623579 108.2862,13 C108.2862,14.5376421 108.528673,15.9704235 109.013627,17.2983871 C109.498581,18.6263507 110.191362,19.779565 111.091991,20.7580645 C111.99262,21.736564 113.08375,22.5053735 114.365414,23.0645161 C115.647078,23.6236587 117.084598,23.9032258 118.678018,23.9032258 C119.994322,23.9032258 121.229781,23.7983881 122.384433,23.5887097 C123.539086,23.3790312 124.589803,22.9946265 125.536618,22.4354839 L125.536618,14.1182796 L119.647921,14.1182796 L119.647921,12.0215054 L127.822818,12.0215054 L127.822818,23.7634409 Z M136.171351,11.5322581 L141.020866,11.5322581 C142.221704,11.5322581 143.197371,11.3808259 143.947895,11.077957 C144.698419,10.7750881 145.281509,10.402332 145.697184,9.95967742 C146.112859,9.51702288 146.395745,9.03942909 146.545849,8.52688172 C146.695954,8.01433435 146.771005,7.54838919 146.771005,7.12903226 C146.771005,6.70967532 146.695954,6.24373016 146.545849,5.7311828 C146.395745,5.21863543 146.112859,4.74104164 145.697184,4.2983871 C145.281509,3.85573255 144.698419,3.48297642 143.947895,3.18010753 C143.197371,2.87723863 142.221704,2.72580645 141.020866,2.72580645 L136.171351,2.72580645 L136.171351,11.5322581 Z M133.885151,0.629032258 L140.328078,0.629032258 C140.651381,0.629032258 141.090142,0.640680887 141.644375,0.663978495 C142.198608,0.687276102 142.799018,0.757167876 143.445624,0.873655914 C144.092229,0.990143952 144.750371,1.17652202 145.420069,1.4327957 C146.089767,1.68906938 146.690177,2.06182551 147.221317,2.55107527 C147.752458,3.04032503 148.191219,3.65770237 148.537614,4.40322581 C148.88401,5.14874925 149.057205,6.05734231 149.057205,7.12903226 C149.057205,8.31721024 148.855144,9.29569508 148.451016,10.0645161 C148.046888,10.8333372 147.538848,11.4565388 146.926883,11.9341398 C146.314917,12.4117407 145.639456,12.7670239 144.900478,13 C144.161501,13.2329761 143.457173,13.3960569 142.787475,13.4892473 L149.92319,25.3709677 L147.325236,25.3709677 L140.431996,13.6290323 L136.171351,13.6290323 L136.171351,25.3709677 L133.885151,25.3709677 L133.885151,0.629032258 Z M152.175189,13 C152.175189,11.1128938 152.486941,9.37724806 153.110453,7.79301075 C153.733965,6.20877344 154.599941,4.84005953 155.708408,3.68682796 C156.816874,2.53359638 158.150477,1.63082763 159.709258,0.978494624 C161.268038,0.326161613 162.982671,0 164.853208,0 C166.723744,0 168.438377,0.326161613 169.997158,0.978494624 C171.555938,1.63082763 172.889541,2.53359638 173.998008,3.68682796 C175.106474,4.84005953 175.97245,6.20877344 176.595962,7.79301075 C177.219474,9.37724806 177.531226,11.1128938 177.531226,13 C177.531226,14.8871062 177.219474,16.6285763 176.595962,18.2244624 C175.97245,19.8203485 175.106474,21.1948867 173.998008,22.3481183 C172.889541,23.5013499 171.555938,24.3982943 169.997158,25.0389785 C168.438377,25.6796627 166.723744,26 164.853208,26 C162.982671,26 161.268038,25.6796627 159.709258,25.0389785 C158.150477,24.3982943 156.816874,23.5013499 155.708408,22.3481183 C154.599941,21.1948867 153.733965,19.8203485 153.110453,18.2244624 C152.486941,16.6285763 152.175189,14.8871062 152.175189,13 Z M154.461389,13 C154.461389,14.5376421 154.703863,15.9704235 155.188817,17.2983871 C155.673771,18.6263507 156.366552,19.779565 157.26718,20.7580645 C158.167809,21.736564 159.258939,22.5053735 160.540603,23.0645161 C161.822267,23.6236587 163.259787,23.9032258 164.853208,23.9032258 C166.446628,23.9032258 167.884148,23.6236587 169.165812,23.0645161 C170.447476,22.5053735 171.538606,21.736564 172.439235,20.7580645 C173.339864,19.779565 174.032645,18.6263507 174.517599,17.2983871 C175.002552,15.9704235 175.245026,14.5376421 175.245026,13 C175.245026,11.4623579 175.002552,10.0295765 174.517599,8.7016129 C174.032645,7.37364927 173.339864,6.220435 172.439235,5.24193548 C171.538606,4.26343597 170.447476,3.49462645 169.165812,2.93548387 C167.884148,2.37634129 166.446628,2.09677419 164.853208,2.09677419 C163.259787,2.09677419 161.822267,2.37634129 160.540603,2.93548387 C159.258939,3.49462645 158.167809,4.26343597 157.26718,5.24193548 C156.366552,6.220435 155.673771,7.37364927 155.188817,8.7016129 C154.703863,10.0295765 154.461389,11.4623579 154.461389,13 Z M199.423761,15.9005376 C199.423761,17.2285013 199.273659,18.4982018 198.973449,19.7096774 C198.67324,20.921153 198.170974,21.9928269 197.466636,22.9247312 C196.762298,23.8566355 195.83859,24.6021477 194.695484,25.1612903 C193.552378,25.7204329 192.149497,26 190.486798,26 C188.824098,26 187.421217,25.7204329 186.278111,25.1612903 C185.135006,24.6021477 184.211298,23.8566355 183.50696,22.9247312 C182.802622,21.9928269 182.300356,20.921153 182.000146,19.7096774 C181.699937,18.4982018 181.549834,17.2285013 181.549834,15.9005376 L181.549834,0.629032258 L183.836034,0.629032258 L183.836034,15.3064516 C183.836034,16.1917607 183.916858,17.1352997 184.07851,18.1370968 C184.240161,19.1388939 184.557686,20.0707842 185.031093,20.9327957 C185.504501,21.7948072 186.174189,22.5053735 187.040178,23.0645161 C187.906167,23.6236587 189.055029,23.9032258 190.486798,23.9032258 C191.918567,23.9032258 193.067428,23.6236587 193.933417,23.0645161 C194.799407,22.5053735 195.469095,21.7948072 195.942502,20.9327957 C196.41591,20.0707842 196.733434,19.1388939 196.895086,18.1370968 C197.056737,17.1352997 197.137561,16.1917607 197.137561,15.3064516 L197.137561,0.629032258 L199.423761,0.629032258 L199.423761,15.9005376 Z M205.035782,0.629032258 L212.102218,0.629032258 C212.956661,0.629032258 213.851503,0.728045605 214.786771,0.926075269 C215.72204,1.12410493 216.576469,1.46773949 217.350086,1.95698925 C218.123703,2.44623901 218.758753,3.11603517 219.255253,3.96639785 C219.751753,4.81676052 220,5.88261008 220,7.16397849 C220,8.28226366 219.797939,9.24909987 219.393811,10.0645161 C218.989682,10.8799324 218.447004,11.5497286 217.765759,12.0739247 C217.084514,12.5981209 216.299363,12.98835 215.41028,13.2446237 C214.521198,13.5008973 213.591717,13.6290323 212.621809,13.6290323 L207.321982,13.6290323 L207.321982,25.3709677 L205.035782,25.3709677 L205.035782,0.629032258 Z M207.321982,11.5322581 L212.517891,11.5322581 C213.164496,11.5322581 213.799545,11.456542 214.423058,11.3051075 C215.04657,11.1536731 215.600795,10.9090519 216.085748,10.5712366 C216.570702,10.2334212 216.963278,9.78494903 217.263488,9.22580645 C217.563697,8.66666387 217.7138,7.97939476 217.7138,7.16397849 C217.7138,6.37185984 217.557924,5.69623935 217.246168,5.13709677 C216.934412,4.57795419 216.53029,4.11783335 216.033789,3.75672043 C215.537289,3.39560751 214.965745,3.13351336 214.319139,2.97043011 C213.672534,2.80734685 213.025939,2.72580645 212.379333,2.72580645 L207.321982,2.72580645 L207.321982,11.5322581 Z" id="GROUP" fill="#ABACAD"></path>
            </g>
        </g>
    </g>
</svg>