<?xml version="1.0" encoding="UTF-8"?>
<svg width="280px" height="86px" viewBox="0 0 280 86" version="1.1" xmlns="http://www.w3.org/2000/svg" xmlns:xlink="http://www.w3.org/1999/xlink">
    <!-- Generator: Sketch 56.3 (81716) - https://sketch.com -->
    <title>yapo</title>
    <desc>Created with Sketch.</desc>
    <g id="Page-1" stroke="none" stroke-width="1" fill="none" fill-rule="evenodd">
        <g id="yapo">
            <path d="M227.171297,21 C237.39025,20.9929952 244.533246,27.801788 244.519925,37.5370106 C244.507679,46.4911296 236.860472,54.0381151 227.672396,53.8783681 C214.739194,53.6531927 209.84692,45.5500666 209.836455,37.4488523 C209.824022,27.7911665 216.989472,21.0070156 227.171297,21 Z M226.998627,43.7954947 C227.611773,43.6773839 228.25004,43.6270381 228.834063,43.4299034 C232.129445,42.3167724 233.727449,38.891558 232.61098,35.4038892 C231.813313,32.9116654 229.706429,31.2421814 227.249621,31.1550853 C224.851059,31.0701134 222.589666,32.5634933 221.584134,34.8961825 C219.825841,38.9761049 222.704826,43.6837568 226.998627,43.7954947 Z M185.492338,23.1299423 C194.470992,19.2862416 204.27755,23.9735002 206.446681,33.1627787 C207.597609,38.0376126 207.095843,42.7106384 204.32268,47.0614086 C201.159131,52.0248256 194.665296,54.7530586 188.7148,53.4710461 C186.605694,53.0166593 184.560836,52.2897253 182.349686,51.6473382 C182.349686,52.5765052 182.335903,53.5150191 182.352354,54.4533205 C182.394372,56.858873 182.430831,59.2646379 182.508864,61.6691283 C182.539544,62.6157145 182.20118,63.1259703 181.142291,63.1126397 C177.961846,63.0713759 174.781179,63.0541691 171.600511,63.021455 C170.612319,63.0112584 170.322865,62.5192715 170.317974,61.5905294 C170.27351,53.204447 170.208372,44.8181522 170.092323,36.4324948 C170.038078,32.5118945 170.115222,28.5736626 169.111023,24.7204026 C168.873368,23.8086548 169.479844,23.3842205 170.270176,23.2263854 C172.150298,22.8512347 174.037311,22.4971146 175.934996,22.2162827 C177.063914,22.0491006 178.217731,21.9734757 179.360655,21.9700768 C181.003789,21.9649785 181.515781,22.4801203 181.65206,24.0605963 C181.67029,24.2704767 181.688298,24.4812069 181.726314,24.6883257 C181.736763,24.7456817 181.819242,24.791354 181.962635,24.9394174 C183.154913,24.3233717 184.286054,23.6463586 185.492338,23.1299423 Z M193.988318,37.906741 C193.824471,37.0425775 193.752441,36.1507981 193.480772,35.3187115 C192.366304,31.9056055 188.700545,30.2119045 185.60458,31.6859533 C183.356748,32.7561735 182.555523,34.7343177 182.221828,36.9567559 C181.690938,40.4926462 184.275355,43.726674 187.794609,43.9320934 C191.643334,44.1564191 193.933628,41.8997797 193.988318,37.906741 Z M151.807205,24.8424033 C152.056642,24.1273654 152.225602,23.4359071 152.545959,22.8156128 C152.695577,22.5256464 153.171555,22.1543195 153.441668,22.1925568 C156.510955,22.6280374 159.570683,23.1259724 162.628632,23.632192 C163.24489,23.7341582 163.593036,24.0738331 163.472319,24.7604055 C162.000591,33.1358664 162.53815,41.5544505 162.91453,49.9677238 C163.045918,52.9011638 162.813376,53.2297923 159.759651,53.3589495 C157.281056,53.4636773 154.797125,53.4445586 152.316529,53.5165723 C151.730506,53.5335666 151.418597,53.3493902 151.29788,52.8106688 C151.099352,51.924625 150.883706,51.0421926 150.634268,49.9845057 C150.188081,50.2872179 149.840157,50.4686327 149.561818,50.7203618 C143.150018,56.5177773 134.367668,53.7708505 130.078981,48.4520388 C125.235838,42.4451677 125.163141,32.8437757 130.010952,26.9456686 C134.084661,21.9894741 142.139594,19.9444146 147.965816,22.4842226 C149.287036,23.0601192 150.439297,23.989711 151.807205,24.8424033 Z M151.308682,37.2688218 C151.293496,33.8004841 148.536784,31.1661449 144.90704,31.1516398 C141.232388,31.1370421 138.383415,33.8140796 138.382081,37.2824173 C138.38097,40.7297244 141.375337,43.5688457 144.969288,43.5278468 C148.685291,43.4853609 151.324176,40.8799121 151.308682,37.2688218 Z M89.0441492,55.6705676 C91.2135035,55.3854871 93.1745482,55.2302011 95.0820148,54.8365691 C96.1275644,54.6209531 97.1851191,54.1383131 98.052594,53.5341634 C99.2370908,52.7090869 99.3480262,51.7325481 98.5150102,50.5750194 C96.7109202,48.0681379 94.8147916,45.6220114 93.0015867,43.1208656 C91.7799633,41.4354493 90.6156972,39.7107336 89.4729957,37.9749715 C89.2320058,37.6089554 89.0890569,37.1203674 89.0832767,36.6859489 C89.0296987,32.7211633 88.9976853,28.7557404 89,24.7907424 C89.00102,23.0668764 89.0523749,22.9782932 90.8702484,22.9591746 C93.9426481,22.9264604 97.0163816,23.0195046 100.089671,23.0301261 C101.136109,23.0335249 101.460468,23.4719796 101.453798,24.4559534 C101.431344,27.7832378 101.472695,31.1117968 101.551839,34.438444 C101.567179,35.0799813 101.724801,35.7928949 102.057162,36.3392638 C103.095153,38.0454982 104.166269,39.7453596 105.385892,41.3347577 C106.216907,42.4179361 106.778031,42.3969056 107.514118,41.2816503 C108.754416,39.4029231 109.845985,37.4326388 110.95067,35.4753127 C111.127856,35.1613418 111.077835,34.7154521 111.082725,34.3298925 C111.125855,30.9669198 111.180989,27.6039472 111.175431,24.2407622 C111.173875,23.4254575 111.493342,23.0579543 112.30924,23.0539182 C115.641304,23.0373487 118.973813,22.9963498 122.304543,23.0566798 C122.692039,23.0636899 123.308964,23.5909401 123.403448,23.9714015 C123.666448,25.0284511 123.812731,26.1343594 123.821179,27.2224237 C123.846968,30.5142324 123.804728,33.8073157 123.738255,37.098912 C123.728029,37.6010955 123.564627,38.171044 123.277618,38.5871936 C119.36909,44.2552395 115.489907,49.9434662 111.462885,55.5341878 C109.70348,57.9767031 107.614827,60.2019029 105.6958,62.5407525 C105.027519,63.3556323 104.16538,63.7405547 103.111382,63.7677457 C100.002301,63.8482565 96.8925519,63.9083741 93.7836925,63.9982318 C92.6336546,64.0315832 91.9675975,63.5952529 91.5789901,62.5091005 C90.970068,60.806265 90.170844,59.1665211 89.4981174,57.4832292 C89.2809152,56.9398343 89.2077734,56.3439693 89.0441492,55.6705676 Z M246.499032,49.1340462 C246.481247,46.9311515 248.398495,45.1881668 250.81751,45.2079228 C253.185614,45.2274663 255.173559,47.0214341 255.191567,49.1552891 C255.210463,51.3707172 253.138039,53.3675552 250.802837,53.3841247 C248.448739,53.4009066 246.518151,51.4943512 246.499032,49.1340462 Z M267.714361,41.6978829 C267.566965,41.6978829 267.196143,41.6853496 266.826655,41.7000072 C264.578379,41.7881655 263.732913,42.5773414 263.734691,44.5756664 C263.73647,46.5285315 264.991218,47.887231 266.946483,47.9224943 C267.704579,47.9360898 268.488241,47.7818659 269.222771,47.5794206 C270.05223,47.3508463 270.517536,47.5947155 270.723845,48.3486281 C270.91059,49.0311643 271.079994,49.719861 271.21783,50.4128062 C271.567754,52.170661 271.202935,52.7221281 269.366164,53.2793309 C265.532779,54.441958 260.82347,53.1274438 258.620991,50.2802502 C256.33959,47.3310904 256.431851,42.8059156 258.874875,39.5421476 C261.638701,35.8494843 265.888484,35.0390654 270.35369,36.5696205 C271.16025,36.8459914 271.556861,37.4119038 271.359667,38.2250842 C271.126903,39.1861156 270.817662,40.1303651 270.538434,41.0809874 C270.372809,41.6443507 270.000875,41.8746243 269.377725,41.7907146 C268.902859,41.7267733 268.417544,41.7337835 267.714361,41.6978829 Z M279.99874,29.203132 C279.99874,29.724859 280.001852,30.0033542 279.998295,30.2814245 C279.902477,37.6030223 279.795099,44.92462 279.725736,52.2464302 C279.718622,53.0101145 279.579008,53.4466573 278.666403,53.4279635 C277.154213,53.3971612 275.640467,53.3997103 274.128278,53.4328493 C273.159204,53.4540923 273.111851,52.9041121 273.102514,52.1956595 C273.014922,45.5816647 272.906654,38.9678823 272.801054,32.3538875 C272.789716,31.6467094 272.834179,30.9278477 272.714351,30.2363894 C272.589632,29.5168905 272.883756,29.2160902 273.560262,29.2099297 C275.662032,29.1912359 277.764025,29.203132 279.99874,29.203132 Z" id="Combined-Shape" fill="#0155AB"></path>
            <path d="M36.4701801,85.381315 C25.9084334,79.4551874 15.3725653,73.4810984 4.83099911,67.5176675 C2.77021683,66.3518203 1.08312939,64.8189964 0.270924758,62.4780972 C0.129424039,62.0699417 -0.00234257082,61.6278742 -6.605827e-15,61.2022781 C0.0646091118,49.6983478 0.14082007,38.1944175 0.233887657,26.6907295 C0.248132696,24.9258504 0.514514922,23.2193485 1.89201018,21.9350514 C2.0033589,21.8311352 2.14272286,21.7587088 2.48840247,21.5201134 C2.56793727,21.693307 2.67287573,21.8718296 2.73507906,22.064886 C3.47558367,24.3583083 5.28565327,25.5864083 7.19781232,26.6907295 C14.4544725,30.8822567 21.7263275,35.046412 28.9789516,39.2456905 C31.1439601,40.4989824 33.2764424,41.8125892 35.4010899,43.1363696 C37.3756897,44.3668919 38.6273538,46.0247058 38.560877,48.5543012 C38.5081703,50.5689182 38.6719883,52.5881375 38.6755495,54.6054189 C38.6919313,63.6076102 38.7325297,72.6105281 38.6425485,81.6119926 C38.6266416,83.2056159 39.1425494,84.1960895 40.3958754,84.9455454 C40.6921722,85.1228569 40.9682885,85.3352915 41.5456874,85.7320623 C39.5831959,86.0791762 37.9388436,86.2053774 36.4701801,85.381315 Z M38.7870882,43.7673756 C39.272844,43.6421433 39.3825308,43.5796483 39.4829583,43.5927286 C42.747209,44.0209892 45.4908035,42.6722592 48.1831158,41.032128 C55.2075819,36.751945 62.2524659,32.506643 69.3020982,28.269819 C70.9013412,27.3084129 72.5390458,26.410713 74.186722,25.5382048 C74.773855,25.2274253 75.4279397,24.9735695 76.0777509,24.8752246 C77.7194916,24.6271823 78.6534913,25.4066746 78.821108,27.0642463 C78.9025421,27.8667503 79.0039193,28.6733722 79,29.4775718 C78.9457521,40.0525547 78.8621812,50.6272953 78.81541,61.2020359 C78.8025894,64.1480226 77.7406218,66.2844807 75.1014909,67.8073731 C66.0547041,73.0278883 57.0950495,78.4053677 48.0928972,83.7063028 C47.2745197,84.1883382 46.4122201,84.6141764 45.5295025,84.9562035 C43.5625,85.7184975 41.8490593,84.6708579 41.7761722,82.5179283 C41.5651082,76.2667296 41.4537594,70.0121397 41.3196187,63.7585187 C41.2175292,58.9965427 41.1007199,54.2340822 41.0710427,49.4713794 C41.05751,47.3283812 41.0634454,45.2464247 38.7870882,43.7673756 Z M62.8353728,13.890003 C61.9106324,14.4614208 61.0457211,14.9957775 60.2385023,15.4947688 C60.2579705,15.7265818 60.2363655,15.8266223 60.2755394,15.8811238 C61.5084475,17.5946503 61.4215527,18.3087408 59.4939616,19.472408 C56.0618569,21.544191 52.5744339,23.520778 49.095558,25.5111721 C44.9281719,27.8954302 40.7220868,30.2104108 36.5779675,32.6356056 C33.6895485,34.325636 30.7403506,34.6603962 27.7477054,33.1711735 C25.2358302,31.9207884 22.8132239,30.4790426 20.3844448,29.062973 C19.8165426,28.7318462 19.3279377,28.2083898 18.8991621,27.6907468 C18.1042889,26.7305519 18.162931,25.9047939 19.0701025,25.0373725 C19.4974537,24.6287325 19.9986417,24.2825876 20.510276,23.9870684 C28.620214,19.3026056 36.7512822,14.6556883 44.8419894,9.93658673 C46.5744236,8.92600817 48.1587093,8.87683572 49.8519696,9.91091048 C51.68127,11.0283119 53.5516436,12.0757093 55.3904407,13.1771237 C56.2408695,13.6865308 57.1506527,13.94184 57.9289066,13.2454322 C59.8263458,11.5474083 61.2653321,12.7726016 62.8353728,13.890003 Z M78.3204423,23.0811327 C73.5120295,22.5465338 70.0913208,25.2822659 66.4645339,27.3048764 C60.2940579,30.7459787 54.2247217,34.3757773 48.105053,37.9123179 C46.7992578,38.6668606 45.4274605,39.3061024 44.1437451,40.0957683 C41.5262192,41.7063476 38.898247,41.6678332 36.2536555,40.2553971 C31.9499918,37.956888 27.6349322,35.6782416 23.378752,33.2905923 C18.1163972,30.3385499 12.9036626,27.2939761 7.68356815,24.2644204 C6.72487703,23.7080209 5.77639486,23.1026911 4.92454154,22.3929607 C3.88109244,21.5236015 3.95018088,20.2431801 5.03873926,19.4251734 C5.86400185,18.8050677 6.73556081,18.2365567 7.63347309,17.7322363 C17.3929866,12.2498718 27.1603349,6.78228326 36.9312445,1.32075044 C37.587466,0.954016033 38.2667169,0.604964328 38.9730334,0.361524381 C40.4742231,-0.15611857 41.8832949,-0.181310366 43.3799736,0.70573151 C53.6637046,6.80117711 64.0072647,12.7912532 74.2833983,18.9000214 C75.5737614,19.6669177 76.5915695,20.9177873 77.7100424,21.9726937 C77.9206316,22.1713213 78.0103753,22.5039015 78.3204423,23.0811327 Z M3.70207978,42.4731471 C2.82672215,41.0766981 2.05107978,39.9585699 1.41456396,38.7631708 C1.17263572,38.3087495 1.25074601,37.6770168 1.18308208,37.1261885 C1.84333963,37.1654296 2.74552543,36.9459703 3.11091067,37.3013199 C3.75146259,37.923848 4.09429319,38.8833162 4.49837746,39.7332971 C4.67715269,40.1094784 4.70041959,40.5624463 4.83456037,41.1592981 C5.1695562,40.1496884 5.39795166,39.2963164 5.73294749,38.4889678 C6.29491427,37.1344243 7.1591133,36.5894095 8.56889731,36.9316788 C10.404608,37.3771375 12.2604991,37.8584462 13.9929333,38.6025731 C18.8355342,40.6825918 23.1850194,43.5873996 27.1667452,47.0958416 C29.6233022,49.2606404 31.3213108,51.8163965 31.8438663,55.1249997 C31.9186528,55.5992837 32.0727366,56.061214 32.1995174,56.5260511 C32.2189857,56.5972664 32.2892612,56.6541901 32.3407807,56.7241943 C32.391588,56.684711 32.4547411,56.6563702 32.486555,56.6071978 C32.8566886,56.032631 33.2220738,55.4551576 33.5886461,54.8784108 C34.1672321,55.3124848 34.7714592,55.716038 35.3127707,56.1939554 C35.5708433,56.4216505 35.6999983,56.7971051 35.9025153,57.0948043 C36.4333804,57.87575 36.2455833,58.383946 35.4141479,58.8059086 C33.6971459,59.6779323 33.7460538,59.6859258 34.6055045,61.3892788 C34.8972904,61.9677212 35.0967209,62.6655823 35.1026564,63.3113643 C35.1349451,66.8619541 35.1126279,70.4135128 35.0582593,73.9638604 C35.0504245,74.4778699 34.7697973,74.9875193 34.6152386,75.4991065 C34.1233099,75.2881253 33.523119,75.1953516 33.1577337,74.8465422 C31.4559264,73.222398 29.8550215,71.4877976 28.145142,69.8733426 C27.1432409,68.9274391 26.0855468,67.9904981 24.9129426,67.2955437 C20.5067147,64.6835905 16.0594136,62.1421259 11.5857591,59.6520138 C10.761921,59.1934747 9.7576458,59.018101 8.81296231,58.8536277 C7.5320959,58.6305349 6.20422086,58.6571801 4.93997366,58.3737724 C2.85616189,57.9067553 2.12467915,56.8690471 2.12467915,54.7495451 C2.12467915,51.5211196 2.12159272,48.2926941 2.12610365,45.0645108 C2.12776557,43.9161041 1.7524088,42.5695542 3.70207978,42.4731471 Z M59.5967158,71.0871511 L59.5967158,58.8395784 C57.4461897,59.9363904 55.4362148,60.9317086 53.4682626,62.00672 C53.2472271,62.1275922 53.1835993,62.6994944 53.1816999,63.0630798 C53.1605698,66.6957852 53.1458499,70.328975 53.1854986,73.9611959 C53.1938082,74.7133163 52.963276,75.1132361 52.3042055,75.4421828 C50.7890082,76.1979366 49.3158338,77.0413773 47.5898099,77.976865 L47.5898099,65.5781415 C46.573189,66.1224296 45.7866254,66.5434232 44.8936989,67.0213407 C44.5788836,66.0347428 44.1807347,65.1043419 44.0197658,64.1332467 C43.9511522,63.7204888 44.3039543,63.1645737 44.5924163,62.7707096 C49.2327378,56.4361842 53.9934297,50.1900723 58.4889266,43.750904 C59.8424427,41.8121047 61.198333,41.1467022 63.3483842,41.7018906 C64.0660967,41.8874379 64.8362785,41.8615194 65.6971537,41.9431505 C65.6971537,40.9153737 65.668901,39.9636567 65.7116361,39.0155732 C65.7280179,38.6536833 65.798056,38.1156932 66.0302502,37.9720515 C67.3685716,37.1450824 68.762686,36.412098 70.4032397,35.4996221 C70.4032397,37.7397541 70.4659178,39.7078631 70.3773612,41.6687052 C70.3317771,42.6766193 70.6195268,43.0869549 71.6086074,43.2492482 C73.4336343,43.5488852 75.2356317,43.9933751 77.0224344,44.3722209 C77.3790352,46.7608391 77.4523971,46.9170767 75.5169712,47.864918 C73.5851065,48.811306 72.9210503,50.073318 73.043795,52.2696066 C73.2346786,55.687455 73.0616013,59.1283151 72.9820665,62.5580328 C72.9718576,62.9921068 72.709274,63.6156037 72.3721415,63.8161692 C68.3438819,66.2122965 64.2797723,68.5459288 60.222073,70.8904613 C60.0936302,70.9648256 59.9343232,70.9834772 59.5967158,71.0871511 Z M62.7652398,64.5126739 C62.7652398,61.9956744 62.7519444,59.8267577 62.7820964,57.6583254 C62.7858951,57.3843646 62.9447273,56.986625 63.155079,56.8604237 C65.4827183,55.4671237 67.8345743,54.1162136 70.4521002,52.5957434 C70.4521002,54.8276396 70.5114545,56.7846061 70.4126889,58.7330946 C70.3860981,59.2594578 70.0040937,59.9534433 69.5736561,60.2404845 C67.4112592,61.6822303 65.1785868,63.0144887 62.7652398,64.5126739 Z M44.2725915,24.4634114 C43.6467594,24.261877 43.0024088,24.1562653 42.4565864,23.8607461 C40.3993654,22.7462514 38.3487921,21.6138317 36.3459396,20.4014766 C35.0607997,19.6231954 35.0505907,19.0844786 36.3003555,18.3338115 C39.431415,16.4524204 42.5722087,14.5821718 45.7844649,12.8533849 C46.4463844,12.4970663 47.5729296,12.4835015 48.2500437,12.8139016 C50.6313394,13.9753887 52.9359493,15.3110383 55.2168174,16.6730909 C56.2507698,17.2902898 56.2298771,17.8064794 55.1942628,18.4321564 C52.1016648,20.3007094 48.9812891,22.1220278 45.8528411,23.9278435 C45.3846542,24.1979286 44.81509,24.285131 44.2725915,24.4634114 Z M22.2045571,26.5909796 C23.7461078,25.1075704 24.7240297,25.0024431 26.0027593,26.0881126 C26.5063215,26.5154042 26.4954003,26.8189169 25.96501,27.2106009 C24.624077,28.2010745 23.7546548,28.0848047 22.2045571,26.5909796 Z M29.3270766,30.6838955 C31.3928446,29.018088 31.5146397,28.8654839 33.4536269,30.683411 C31.9208607,32.5761869 30.8460726,32.1513176 29.3270766,30.6838955 Z M36.746795,26.5869829 C38.7486978,24.7278768 38.8882992,24.8548047 40.7524999,26.5315125 C39.6494591,28.2469768 38.2406247,28.2663551 36.746795,26.5869829 Z M33.6827109,22.5682132 C31.9374562,24.2238471 31.3797629,24.1858172 29.6205006,22.4856132 C31.1155175,20.7972785 32.4210753,20.8236814 33.6827109,22.5682132 Z M30.2430801,24.5338515 C28.55623,26.1890009 27.6583178,26.1890009 26.0455419,24.5796328 C27.7563711,22.7440229 28.589231,23.0015121 30.2430801,24.5338515 Z M30.1653734,28.5973608 C28.5547343,30.2929624 27.8061575,30.3082228 25.7546345,28.7431825 C27.3460428,27.1648197 28.5877353,27.1052314 30.1653734,28.5973608 Z M32.8476192,28.6374012 C34.9010416,27.1428495 35.6747846,27.1341293 37.306079,28.5194358 C36.1474825,30.2499184 35.1633877,30.2850415 32.8476192,28.6374012 Z M33.0610574,24.549984 C35.1315738,23.021278 35.9881755,23.0411407 37.6125847,24.5797781 C35.4539865,26.141185 34.9288194,26.1397316 33.0610574,24.549984 Z M29.5595081,26.5495585 C31.7366249,24.9283211 32.0065684,24.7713569 33.6763244,26.6285251 C31.8707657,28.3696657 31.4916102,28.2618739 29.5595081,26.5495585 Z M30.2534789,55.2843378 C29.7138294,54.981794 29.1475891,54.7194602 28.6385664,54.3704085 C21.9080229,49.7552232 14.9889701,45.486425 7.45951743,42.3374505 C6.55163362,41.957878 6.3882905,41.434906 6.86644897,40.5573111 C7.51079957,39.3749923 8.50795229,38.9537564 9.73658689,39.0692995 C10.5162653,39.1424526 11.3142249,39.2936034 12.0468948,39.5678064 C17.6330868,41.6599366 22.7862296,44.534708 26.9407952,48.9425455 C28.2746056,50.3576462 29.1537619,52.2245036 30.2012471,53.910416 C30.3956919,54.2233757 30.4006777,54.658903 30.4932704,55.0379911 C30.4132608,55.1201067 30.3334886,55.2022223 30.2534789,55.2843378 Z M5.24455633,45.4254802 C5.275658,44.7687979 5.6595618,44.4190195 6.47698961,44.6297586 C8.17879692,45.0684349 11.2139399,48.4131303 11.4886317,50.1484574 C11.6085274,50.9059069 11.3582896,51.3482167 10.5553442,51.2816037 C8.67404944,51.1256084 5.26046329,47.4580221 5.24455633,45.4254802 Z M29.9459998,62.2623198 C28.3610018,62.0586054 26.8707333,61.1814949 25.97567,59.4500434 C25.5986513,58.7206925 25.5891546,57.9530694 26.5468961,57.5604165 C28.218314,56.8751513 31.2527447,58.3386977 31.7458604,60.0732981 C32.131901,61.4312328 31.5670852,62.2577175 29.9459998,62.2623198 Z" id="Combined-Shape" fill="#F55B00"></path>
        </g>
    </g>
</svg>